<?xml version="1.0" encoding="UTF-8"?>
<svg xmlns="http://www.w3.org/2000/svg" xmlns:xlink="http://www.w3.org/1999/xlink" width="34px" viewBox="0 0 300 299.999988" version="1.2">
<defs>
<clipPath id="collection1">
  <path d="M 45 27.59375 L 254.859375 27.59375 L 254.859375 271.789062 L 45 271.789062 Z M 45 27.59375 "/>
</clipPath>
<clipPath id="collection2">
  <path d="M 96.5 51 L 203.75 51 L 203.75 186 L 96.5 186 Z M 96.5 51 "/>
</clipPath>
</defs>
<g id="collectionicon">
<g clip-path="url(#collection1)" clip-rule="nonzero">
<path style="fill:none;stroke-width:3;stroke-linecap:round;stroke-linejoin:round;stroke:rgb(54.508972%,58.039856%,60.389709%);stroke-opacity:1;stroke-miterlimit:4;" d="M 3.999915 1.500062 L 20.00015 1.500062 C 20.081985 1.500062 20.163372 1.504094 20.245207 1.512156 C 20.326594 1.520218 20.407535 1.531863 20.487581 1.547988 C 20.568074 1.564112 20.647225 1.58382 20.72593 1.607558 C 20.804187 1.631297 20.881102 1.659067 20.956676 1.69042 C 21.03225 1.721772 21.106483 1.756709 21.178479 1.795228 C 21.250923 1.833747 21.320684 1.87585 21.389103 1.921535 C 21.457075 1.966773 21.522811 2.015594 21.585864 2.06755 C 21.649364 2.119507 21.709734 2.17415 21.767868 2.232377 C 21.825554 2.290156 21.880558 2.350623 21.932431 2.414224 C 21.984305 2.477378 22.033048 2.542771 22.07866 2.610852 C 22.124273 2.678933 22.166308 2.749253 22.204766 2.821364 C 22.243224 2.893924 22.278552 2.967827 22.309854 3.043074 C 22.341157 3.118769 22.368435 3.195808 22.392136 3.27419 C 22.416284 3.352573 22.43596 3.431851 22.452059 3.512473 C 22.468157 3.592647 22.479784 3.673268 22.487834 3.754786 C 22.495883 3.836304 22.499907 3.918269 22.499907 3.999787 L 22.499907 23.999821 C 22.499907 24.081786 22.495883 24.163752 22.487834 24.244821 C 22.479784 24.326339 22.468157 24.407409 22.452059 24.487583 C 22.43596 24.568204 22.416284 24.647482 22.392136 24.725865 C 22.368435 24.804247 22.341157 24.880838 22.309854 24.956533 C 22.278552 25.032228 22.243224 25.106131 22.204766 25.178691 C 22.166308 25.250802 22.124273 25.320675 22.07866 25.388755 C 22.033048 25.456836 21.984305 25.522677 21.932431 25.585831 C 21.880558 25.649433 21.825554 25.709899 21.767868 25.767678 C 21.709734 25.825457 21.649364 25.880548 21.585864 25.932505 C 21.522811 25.984461 21.457075 26.033282 21.389103 26.07852 C 21.320684 26.124205 21.250923 26.166308 21.178479 26.204827 C 21.106483 26.243347 21.03225 26.278283 20.956676 26.309636 C 20.881102 26.340989 20.804187 26.368758 20.72593 26.392497 C 20.647225 26.416236 20.568074 26.435943 20.487581 26.452068 C 20.407535 26.467744 20.326594 26.479837 20.245207 26.487899 C 20.163372 26.495962 20.081985 26.499993 20.00015 26.499993 L 3.999915 26.499993 C 3.918081 26.499993 3.836246 26.495962 3.754859 26.487899 C 3.673471 26.479837 3.592531 26.467744 3.512485 26.452068 C 3.431992 26.435943 3.352841 26.416236 3.274136 26.392497 C 3.195879 26.368758 3.118963 26.340989 3.043389 26.309636 C 2.967815 26.278283 2.893583 26.243347 2.821586 26.204827 C 2.749143 26.166308 2.678935 26.124205 2.610963 26.07852 C 2.542991 26.033282 2.477255 25.984461 2.414202 25.932505 C 2.350702 25.880548 2.290332 25.825457 2.232198 25.767678 C 2.174511 25.709899 2.119508 25.649433 2.067634 25.585831 C 2.015314 25.522677 1.967018 25.456836 1.921405 25.388755 C 1.875793 25.320675 1.833757 25.250802 1.7953 25.178691 C 1.756395 25.106131 1.721514 25.032228 1.690211 24.956533 C 1.658909 24.880838 1.63163 24.804247 1.607482 24.725865 C 1.583782 24.647482 1.564106 24.568204 1.548007 24.487583 C 1.531908 24.407409 1.520282 24.326339 1.512232 24.244821 C 1.504183 24.163752 1.500158 24.081786 1.500158 23.999821 L 1.500158 3.999787 C 1.500158 3.918269 1.504183 3.836304 1.512232 3.754786 C 1.520282 3.673268 1.531908 3.592647 1.548007 3.512473 C 1.564106 3.431851 1.583782 3.352573 1.607482 3.27419 C 1.63163 3.195808 1.658909 3.118769 1.690211 3.043074 C 1.721514 2.967827 1.756395 2.893924 1.7953 2.821364 C 1.833757 2.749253 1.875793 2.678933 1.921405 2.610852 C 1.967018 2.542771 2.015314 2.477378 2.067634 2.414224 C 2.119508 2.350623 2.174511 2.290156 2.232198 2.232377 C 2.290332 2.17415 2.350702 2.119507 2.414202 2.06755 C 2.477255 2.015594 2.542991 1.966773 2.610963 1.921535 C 2.678935 1.87585 2.749143 1.833747 2.821586 1.795228 C 2.893583 1.756709 2.967815 1.721772 3.043389 1.69042 C 3.118963 1.659067 3.195879 1.631297 3.274136 1.607558 C 3.352841 1.58382 3.431992 1.564112 3.512485 1.547988 C 3.592531 1.531863 3.673471 1.520218 3.754859 1.512156 C 3.836246 1.504094 3.918081 1.500062 3.999915 1.500062 Z M 3.999915 1.500062 " transform="matrix(8.735223,0,0,8.721274,45.083282,27.593325)"/>
</g>
<g clip-path="url(#collection2)" clip-rule="nonzero">
<path style=" stroke:none;fill-rule:nonzero;fill:rgb(54.508972%,58.039856%,59.999084%);fill-opacity:1;" d="M 200.800781 51.820312 L 99.097656 51.820312 C 98.742188 51.828125 98.398438 51.90625 98.074219 52.046875 C 97.746094 52.1875 97.457031 52.386719 97.207031 52.640625 C 96.953125 52.890625 96.761719 53.183594 96.621094 53.511719 C 96.484375 53.839844 96.414062 54.183594 96.410156 54.539062 L 96.410156 173.394531 C 96.417969 174.417969 96.554688 175.421875 96.820312 176.40625 C 97.085938 177.394531 97.472656 178.332031 97.980469 179.21875 C 98.488281 180.105469 99.101562 180.914062 99.816406 181.644531 C 100.53125 182.371094 101.328125 183 102.203125 183.523438 C 104.023438 184.570312 105.984375 185.089844 108.082031 185.074219 C 110.195312 185.113281 112.160156 184.597656 113.984375 183.53125 L 149.941406 163.085938 L 186.027344 183.53125 C 186.472656 183.785156 186.929688 184.003906 187.402344 184.199219 C 187.875 184.390625 188.359375 184.550781 188.855469 184.679688 C 189.347656 184.808594 189.847656 184.90625 190.355469 184.972656 C 190.863281 185.035156 191.371094 185.066406 191.882812 185.066406 C 192.390625 185.0625 192.902344 185.03125 193.40625 184.960938 C 193.914062 184.894531 194.414062 184.792969 194.90625 184.660156 C 195.398438 184.527344 195.882812 184.363281 196.355469 184.167969 C 196.824219 183.972656 197.28125 183.746094 197.726562 183.492188 C 198.167969 183.238281 198.59375 182.957031 198.996094 182.644531 C 199.402344 182.335938 199.789062 182 200.148438 181.640625 C 200.511719 181.28125 200.847656 180.898438 201.160156 180.496094 C 201.472656 180.089844 201.757812 179.667969 202.015625 179.226562 C 202.273438 178.785156 202.5 178.332031 202.699219 177.859375 C 202.898438 177.390625 203.066406 176.910156 203.199219 176.417969 C 203.335938 175.925781 203.4375 175.425781 203.507812 174.917969 C 203.578125 174.414062 203.617188 173.90625 203.621094 173.394531 L 203.621094 54.539062 C 203.613281 54.175781 203.535156 53.824219 203.386719 53.488281 C 203.242188 53.152344 203.035156 52.855469 202.769531 52.601562 C 202.507812 52.347656 202.203125 52.152344 201.863281 52.015625 C 201.523438 51.882812 201.167969 51.816406 200.800781 51.820312 Z M 174.402344 107.015625 L 166.617188 114.585938 L 168.476562 125.332031 C 168.554688 125.886719 168.558594 126.445312 168.484375 127.003906 C 168.414062 127.566406 168.273438 128.105469 168.058594 128.625 C 167.84375 129.144531 167.5625 129.628906 167.222656 130.078125 C 166.878906 130.523438 166.480469 130.917969 166.035156 131.261719 C 164.925781 132.003906 163.707031 132.394531 162.371094 132.429688 C 161.402344 132.425781 160.503906 132.179688 159.667969 131.695312 L 149.933594 126.621094 L 140.367188 131.679688 C 139.871094 131.957031 139.34375 132.15625 138.789062 132.277344 C 138.234375 132.402344 137.671875 132.445312 137.105469 132.410156 C 136.539062 132.371094 135.988281 132.257812 135.453125 132.0625 C 134.917969 131.867188 134.421875 131.601562 133.964844 131.265625 C 133.496094 130.941406 133.082031 130.558594 132.722656 130.117188 C 132.363281 129.671875 132.078125 129.1875 131.863281 128.65625 C 131.648438 128.128906 131.511719 127.582031 131.457031 127.015625 C 131.402344 126.449219 131.429688 125.882812 131.539062 125.324219 L 133.3125 114.582031 L 125.570312 107.023438 C 125.160156 106.625 124.816406 106.175781 124.53125 105.679688 C 124.25 105.183594 124.042969 104.65625 123.910156 104.101562 C 123.78125 103.546875 123.730469 102.984375 123.757812 102.410156 C 123.785156 101.839844 123.894531 101.285156 124.082031 100.746094 C 124.261719 100.207031 124.507812 99.703125 124.824219 99.234375 C 125.140625 98.765625 125.515625 98.34375 125.949219 97.976562 C 126.378906 97.609375 126.851562 97.308594 127.367188 97.070312 C 127.882812 96.832031 128.421875 96.667969 128.980469 96.578125 L 139.65625 95.011719 L 144.546875 85.289062 C 144.800781 84.785156 145.121094 84.324219 145.503906 83.910156 C 145.886719 83.492188 146.320312 83.136719 146.800781 82.839844 C 147.28125 82.546875 147.792969 82.320312 148.339844 82.167969 C 148.882812 82.011719 149.4375 81.9375 150.003906 81.9375 C 150.566406 81.9375 151.121094 82.011719 151.667969 82.167969 C 152.210938 82.320312 152.722656 82.546875 153.203125 82.839844 C 153.6875 83.136719 154.117188 83.492188 154.5 83.910156 C 154.882812 84.324219 155.203125 84.785156 155.457031 85.289062 L 160.25 95.015625 L 171.050781 96.589844 C 171.609375 96.691406 172.144531 96.863281 172.660156 97.105469 C 173.175781 97.347656 173.648438 97.65625 174.078125 98.023438 C 174.511719 98.394531 174.890625 98.8125 175.210938 99.28125 C 175.53125 99.75 175.785156 100.253906 175.972656 100.789062 C 176.140625 101.332031 176.234375 101.882812 176.253906 102.449219 C 176.269531 103.019531 176.207031 103.574219 176.070312 104.125 C 175.933594 104.675781 175.722656 105.195312 175.4375 105.6875 C 175.15625 106.179688 174.808594 106.621094 174.402344 107.015625 Z M 174.402344 107.015625 "/>
</g>
</g>
</svg>
