<?xml version="1.0" encoding="UTF-8"?>
<svg xmlns="http://www.w3.org/2000/svg" xmlns:xlink="http://www.w3.org/1999/xlink" width="22px" viewBox="0 0 224.87999 225" version="1.2">
<defs>
<clipPath id="dark1">
  <path d="M 10.261719 20.582031 L 214.902344 20.582031 L 214.902344 224.9375 L 10.261719 224.9375 Z M 10.261719 20.582031 "/>
</clipPath>
</defs>
<g id="darkicon">
<g clip-path="url(#dark1)" clip-rule="nonzero">
<path style=" stroke:none;fill-rule:nonzero;fill:rgb(52.549744%,57.249451%,60.389709%);fill-opacity:1;" d="M 112.582031 71.742188 C 84.339844 71.742188 61.421875 94.660156 61.421875 122.902344 C 61.421875 151.140625 84.339844 174.0625 112.582031 174.0625 C 140.820312 174.0625 163.742188 151.140625 163.742188 122.902344 C 163.742188 94.660156 140.820312 71.742188 112.582031 71.742188 Z M 112.582031 20.582031 C 56.046875 20.582031 10.261719 66.367188 10.261719 122.902344 C 10.261719 179.433594 56.046875 225.222656 112.582031 225.222656 C 169.113281 225.222656 214.902344 179.433594 214.902344 122.902344 C 214.902344 66.367188 169.113281 20.582031 112.582031 20.582031 Z M 112.582031 204.757812 C 67.355469 204.757812 30.722656 168.125 30.722656 122.902344 C 30.722656 77.675781 67.355469 41.042969 112.582031 41.042969 C 157.804688 41.042969 194.4375 77.675781 194.4375 122.902344 C 194.4375 168.125 157.804688 204.757812 112.582031 204.757812 Z M 112.582031 204.757812 "/>
</g>
</g>
</svg>
