<?xml version="1.0" encoding="UTF-8"?>
<svg xmlns="http://www.w3.org/2000/svg" xmlns:xlink="http://www.w3.org/1999/xlink" width="22px" viewBox="0 0 224.87999 225" version="1.2">
<defs>
<clipPath id="logout1">
  <path d="M 49 39 L 224.761719 39 L 224.761719 207 L 49 207 Z M 49 39 "/>
</clipPath>
<clipPath id="logout2">
  <path d="M 0.0703125 20.582031 L 63.496094 20.582031 L 63.496094 224.9375 L 0.0703125 224.9375 Z M 0.0703125 20.582031 "/>
</clipPath>
</defs>
<g id="logouticon">
<g clip-path="url(#logout1)" clip-rule="nonzero">
<path style=" stroke:none;fill-rule:nonzero;fill:rgb(52.549744%,57.249451%,60.389709%);fill-opacity:1;" d="M 224.621094 120.769531 C 224.566406 120.222656 224.566406 119.675781 224.460938 119.144531 C 224.316406 118.371094 224.046875 117.613281 223.800781 116.867188 C 223.667969 116.445312 223.59375 116.015625 223.433594 115.609375 C 223.109375 114.804688 222.664062 114.042969 222.226562 113.277344 C 222.046875 112.953125 221.914062 112.597656 221.699219 112.277344 C 221.195312 111.515625 220.589844 110.816406 219.96875 110.113281 C 219.738281 109.851562 219.566406 109.554688 219.320312 109.300781 L 219.328125 109.296875 L 155.253906 45.140625 C 147.742188 37.609375 135.546875 37.617188 128.03125 45.140625 C 120.503906 52.675781 120.503906 64.878906 128.03125 72.402344 L 159.078125 103.496094 L 67.472656 103.496094 L 67.472656 103.554688 C 57.335938 104.109375 49.285156 112.496094 49.285156 122.78125 C 49.285156 133.066406 57.335938 141.453125 67.472656 142.003906 L 67.472656 142.058594 L 159.078125 142.058594 L 128.03125 173.15625 C 120.503906 180.683594 120.503906 192.886719 128.03125 200.421875 C 135.546875 207.945312 147.742188 207.945312 155.253906 200.421875 L 219.328125 136.261719 L 219.320312 136.257812 C 219.550781 136.027344 219.703125 135.761719 219.914062 135.515625 C 220.550781 134.792969 221.183594 134.066406 221.707031 133.277344 C 221.894531 132.976562 222.019531 132.652344 222.195312 132.351562 C 222.640625 131.566406 223.097656 130.773438 223.433594 129.949219 C 223.589844 129.554688 223.664062 129.132812 223.792969 128.734375 C 224.046875 127.96875 224.308594 127.199219 224.460938 126.414062 C 224.566406 125.882812 224.566406 125.339844 224.621094 124.792969 C 224.691406 124.117188 224.808594 123.457031 224.808594 122.78125 C 224.808594 122.105469 224.691406 121.433594 224.621094 120.769531 "/>
</g>
<g clip-path="url(#logout2)" clip-rule="nonzero">
<path style=" stroke:none;fill-rule:nonzero;fill:rgb(52.549744%,57.249451%,60.389709%);fill-opacity:1;" d="M 52.898438 203.855469 C 44.128906 203.855469 32.226562 206.011719 25.097656 199.886719 C 20.191406 195.671875 21.132812 188.164062 21.132812 182.398438 C 21.132812 162.523438 21.132812 142.652344 21.132812 122.78125 C 21.132812 102.90625 21.132812 83.035156 21.132812 63.160156 C 21.132812 56.765625 20.515625 51.023438 25.097656 45.675781 C 30.679688 39.152344 45.3125 41.703125 52.898438 41.703125 C 66.476562 41.703125 66.476562 20.617188 52.898438 20.617188 C 40.730469 20.617188 29.71875 19.910156 18.292969 24.746094 C 6.289062 29.828125 0.0703125 44.394531 0.0703125 56.605469 C 0.0703125 78.664062 0.0703125 100.722656 0.0703125 122.78125 C 0.0703125 144.835938 0.0703125 166.894531 0.0703125 188.953125 C 0.0703125 202.691406 6.777344 213.65625 18.292969 220.816406 C 28.066406 226.886719 41.949219 224.945312 52.898438 224.945312 C 66.476562 224.945312 66.476562 203.855469 52.898438 203.855469 "/>
</g>
</g>
</svg>
