<?xml version="1.0" encoding="UTF-8"?>
<svg xmlns="http://www.w3.org/2000/svg" xmlns:xlink="http://www.w3.org/1999/xlink" width="60px" viewBox="0 0 144 143.999998" version="1.2">
<defs>
<clipPath id="phase2">
  <path d="M 0 26.640625 L 144 26.640625 L 144 117.390625 L 0 117.390625 Z M 0 26.640625 "/>
</clipPath>
</defs>
<g id="phase1">
<g clip-path="url(#phase1)" clip-rule="nonzero">
<path style=" stroke:none;fill-rule:nonzero;fill:rgb(0%,70.588684%,62.348938%);fill-opacity:1;" d="M 16.34375 68.335938 C 16.34375 48.050781 32.84375 31.546875 53.121094 31.546875 C 98.265625 31.546875 135.144531 67.628906 136.445312 112.484375 L 124.222656 112.484375 L 124.222656 111.257812 C 124.222656 97.210938 113.429688 85.632812 99.703125 84.390625 L 99.703125 70.789062 L 94.800781 70.789062 L 94.800781 112.484375 L 82.542969 112.484375 L 82.542969 110.03125 C 82.542969 99.210938 73.742188 90.410156 62.929688 90.410156 C 52.113281 90.410156 43.316406 99.210938 43.316406 110.03125 L 43.316406 112.484375 L 31.054688 112.484375 L 31.054688 92.863281 L 38.410156 92.863281 C 39.464844 92.863281 40.402344 92.1875 40.738281 91.1875 L 42.773438 85.074219 C 45.222656 86.425781 47.945312 87.109375 50.667969 87.109375 C 54.851562 87.109375 59.027344 85.515625 62.210938 82.335938 L 69.566406 74.976562 L 66.097656 71.507812 L 58.742188 78.863281 C 54.839844 82.769531 48.792969 83.25 44.359375 80.308594 L 48.09375 69.113281 C 48.386719 68.230469 48.15625 67.257812 47.5 66.601562 L 42.597656 61.695312 C 41.636719 60.738281 40.085938 60.738281 39.128906 61.695312 C 35.792969 65.035156 30.429688 65.414062 26.65625 62.582031 L 25.171875 61.46875 L 22.230469 65.394531 L 23.714844 66.507812 C 28.761719 70.296875 35.6875 70.285156 40.710938 66.746094 L 42.960938 69 L 36.644531 87.957031 L 22.867188 87.957031 L 16.34375 72.738281 Z M 129.421875 50.03125 C 130.8125 51.417969 131.578125 53.265625 131.578125 55.230469 L 131.578125 74.40625 C 127.554688 66.632812 122.339844 59.425781 116.035156 53.015625 L 119.023438 50.03125 C 121.890625 47.160156 126.554688 47.160156 129.421875 50.03125 Z M 10.328125 69.394531 C 10.699219 69.394531 11.070312 69.382812 11.441406 69.351562 L 11.441406 73.242188 C 11.441406 73.574219 11.507812 73.902344 11.640625 74.207031 L 18.996094 91.375 C 19.335938 92.167969 20.054688 92.710938 20.886719 92.835938 C 21.007812 92.855469 21.128906 92.863281 21.25 92.863281 L 26.152344 92.863281 L 26.152344 114.9375 C 26.152344 116.292969 27.25 117.390625 28.605469 117.390625 L 45.765625 117.390625 C 47.121094 117.390625 48.21875 116.292969 48.21875 114.9375 L 48.21875 110.03125 C 48.21875 101.917969 54.816406 95.316406 62.929688 95.316406 C 71.042969 95.316406 77.640625 101.917969 77.640625 110.03125 L 77.640625 114.9375 C 77.640625 116.292969 78.738281 117.390625 80.089844 117.390625 L 97.253906 117.390625 C 98.609375 117.390625 99.707031 116.292969 99.707031 114.9375 L 99.707031 89.320312 C 110.722656 90.542969 119.320312 99.914062 119.320312 111.257812 L 119.320312 114.9375 C 119.320312 115.585938 119.578125 116.210938 120.035156 116.671875 C 120.496094 117.132812 121.121094 117.390625 121.773438 117.390625 L 138.933594 117.390625 C 140.289062 117.390625 141.386719 116.292969 141.386719 114.9375 C 141.386719 104.753906 139.667969 94.835938 136.382812 85.503906 L 143.835938 85.503906 L 143.835938 80.597656 L 136.480469 80.597656 L 136.480469 55.230469 C 136.480469 51.953125 135.207031 48.875 132.894531 46.558594 C 128.113281 41.78125 120.335938 41.78125 115.554688 46.558594 L 112.503906 49.613281 C 96.222656 34.769531 75.296875 26.640625 53.121094 26.640625 C 31.46875 26.640625 13.617188 43.246094 11.628906 64.398438 C 9.160156 64.738281 6.617188 64.101562 4.59375 62.582031 L 3.105469 61.46875 L 0.164062 65.394531 L 1.648438 66.507812 C 4.179688 68.402344 7.238281 69.394531 10.328125 69.394531 "/>
</g>
</g>
</svg>
