<?xml version="1.0" encoding="UTF-8"?>
<svg xmlns="http://www.w3.org/2000/svg" xmlns:xlink="http://www.w3.org/1999/xlink" width="60px" viewBox="0 0 300 449.999984" version="1.2">
<defs>
<clipPath id="news">
  <path d="M 56 77.296875 L 286 77.296875 L 286 356 L 56 356 Z M 56 77.296875 "/>
</clipPath>
<clipPath id="news2">
  <path d="M 79 77.296875 L 298 77.296875 L 298 345 L 79 345 Z M 79 77.296875 "/>
</clipPath>
</defs>
<g id="newspapericon">
<path style=" stroke:none;fill-rule:nonzero;fill:rgb(59.999084%,66.668701%,70.979309%);fill-opacity:1;" d="M 264.277344 111.835938 C 263.609375 111.125 262.976562 110.394531 262.28125 109.699219 C 238.308594 85.714844 205.902344 79.230469 189.921875 95.214844 L 16.234375 268.921875 L 61.722656 314.414062 Z M 264.277344 111.835938 "/>
<path style=" stroke:none;fill-rule:nonzero;fill:rgb(39.99939%,45.878601%,49.798584%);fill-opacity:1;" d="M 88.601562 283.398438 C 64.628906 259.414062 32.226562 252.929688 16.234375 268.921875 C 0.246094 284.914062 6.730469 317.3125 30.710938 341.289062 C 54.691406 365.28125 87.089844 371.757812 103.078125 355.773438 C 119.058594 339.78125 112.585938 307.382812 88.601562 283.398438 Z M 88.601562 283.398438 "/>
<g clip-path="url(#news1)" clip-rule="nonzero">
<path style=" stroke:none;fill-rule:nonzero;fill:rgb(79.998779%,83.918762%,86.669922%);fill-opacity:1;" d="M 264.285156 111.835938 C 286.574219 135.566406 292.28125 166.550781 276.757812 182.066406 L 103.078125 355.773438 C 119.066406 339.78125 112.585938 307.390625 88.601562 283.398438 L 56.761719 251.554688 L 230.441406 77.84375 L 264.351562 111.761719 Z M 264.285156 111.835938 "/>
</g>
<g clip-path="url(#news2)" clip-rule="nonzero">
<path style=" stroke:none;fill-rule:nonzero;fill:rgb(88.238525%,90.979004%,92.939758%);fill-opacity:1;" d="M 275.863281 100.257812 C 298.148438 123.988281 303.863281 154.972656 288.332031 170.488281 L 114.65625 344.1875 C 130.644531 328.203125 124.167969 295.804688 100.179688 271.820312 L 79.917969 251.554688 L 253.59375 77.84375 L 275.929688 100.183594 Z M 275.863281 100.257812 "/>
</g>
<path style=" stroke:none;fill-rule:nonzero;fill:rgb(59.999084%,66.668701%,70.979309%);fill-opacity:1;" d="M 23.007812 277.886719 C 11.527344 289.359375 16.144531 313.679688 33.496094 333.230469 C 49.179688 350.902344 73.996094 366.050781 92.328125 350.617188 C 98.566406 345.433594 101.851562 337.457031 101.71875 328.222656 C 101.488281 312.058594 91.09375 293.894531 74.59375 280.808594 C 71.941406 278.699219 68.144531 279.179688 65.964844 281.800781 C 63.859375 284.460938 64.304688 288.328125 66.964844 290.433594 C 80.449219 301.117188 89.265625 316.027344 89.445312 328.410156 C 89.503906 332.289062 88.667969 337.664062 84.4375 341.230469 C 72.039062 351.65625 52.367188 335.984375 42.6875 325.09375 C 28.964844 309.632812 25.878906 292.390625 31.691406 286.574219 C 33.199219 285.070312 35.066406 284.683594 37.382812 285.371094 C 44.5625 287.515625 53.757812 298.980469 58.128906 319.804688 C 58.824219 323.128906 62.085938 325.257812 65.410156 324.5625 C 68.722656 323.855469 70.851562 320.605469 70.148438 317.28125 C 65.328125 294.273438 54.117188 277.542969 40.894531 273.597656 C 34.238281 271.605469 27.722656 273.179688 23.007812 277.886719 Z M 237.695312 108.25 C 237.53125 108.40625 237.382812 108.558594 237.246094 108.742188 C 235.105469 111.378906 235.53125 115.242188 238.160156 117.371094 C 238.414062 117.566406 263.542969 138.160156 264.828125 164.996094 C 265 168.375 267.882812 170.988281 271.253906 170.824219 C 274.652344 170.652344 277.253906 167.777344 277.101562 164.398438 C 275.542969 131.96875 247.070312 108.765625 245.855469 107.796875 C 243.394531 105.816406 239.871094 106.0625 237.695312 108.25 Z M 220.320312 125.617188 C 220.164062 125.773438 220.019531 125.925781 219.871094 126.109375 C 217.742188 128.746094 218.167969 132.609375 220.796875 134.746094 C 221.050781 134.941406 246.175781 155.535156 247.460938 182.371094 C 247.632812 185.761719 250.507812 188.363281 253.890625 188.199219 C 257.277344 188.027344 259.882812 185.152344 259.734375 181.773438 C 258.171875 149.347656 229.703125 126.140625 228.492188 125.175781 C 226.027344 123.183594 222.507812 123.429688 220.320312 125.617188 Z M 150.84375 195.101562 C 150.695312 195.257812 150.539062 195.414062 150.402344 195.585938 C 148.265625 198.222656 148.691406 202.085938 151.316406 204.226562 C 151.570312 204.421875 176.699219 225.015625 177.984375 251.847656 C 178.15625 255.230469 181.03125 257.851562 184.410156 257.679688 C 187.800781 257.507812 190.40625 254.632812 190.257812 251.25 C 188.695312 218.832031 160.226562 195.617188 159.015625 194.652344 C 156.550781 192.671875 153.039062 192.910156 150.84375 195.101562 Z M 110.324219 235.628906 C 110.167969 235.78125 110.011719 235.945312 109.875 236.117188 C 107.746094 238.753906 108.171875 242.621094 110.789062 244.757812 C 111.054688 244.953125 136.171875 265.546875 137.457031 292.378906 C 137.621094 295.761719 140.511719 298.375 143.890625 298.203125 C 147.28125 298.039062 149.886719 295.164062 149.730469 291.773438 C 148.167969 259.355469 119.707031 236.152344 118.488281 235.175781 C 116.03125 233.203125 112.511719 233.433594 110.324219 235.628906 Z M 110.324219 235.628906 "/>
<path style=" stroke:none;fill-rule:nonzero;fill:rgb(0%,70.588684%,61.959839%);fill-opacity:1;" d="M 207.753906 233.144531 C 218.363281 222.109375 236.328125 205.445312 238.503906 203.167969 C 243.523438 197.910156 225.886719 158.363281 211.46875 147.046875 C 208.308594 144.5625 204.4375 146.570312 202.777344 148.273438 C 190.535156 160.808594 180.808594 170.539062 172.671875 178.636719 C 170.78125 180.527344 169.683594 183.964844 172.351562 186.429688 C 181.085938 194.488281 196.800781 214.46875 201.238281 232.800781 C 201.761719 234.9375 205.558594 235.445312 207.753906 233.144531 Z M 207.753906 233.144531 "/>
</g>
</svg>
