<?xml version="1.0" encoding="UTF-8"?>
<svg xmlns="http://www.w3.org/2000/svg" xmlns:xlink="http://www.w3.org/1999/xlink" width="34px" viewBox="0 0 300 299.999988" version="1.2">
<defs>
<clipPath id="news1">
  <path d="M 45 27.59375 L 254.859375 27.59375 L 254.859375 271.789062 L 45 271.789062 Z M 45 27.59375 "/>
</clipPath>
</defs>
<g id="newsicon">
<g clip-path="url(#news1)" clip-rule="nonzero">
<path style="fill:none;stroke-width:3;stroke-linecap:round;stroke-linejoin:round;stroke:rgb(54.508972%,58.039856%,60.389709%);stroke-opacity:1;stroke-miterlimit:4;" d="M 3.999915 1.500062 L 20.00015 1.500062 C 20.081985 1.500062 20.163372 1.504094 20.245207 1.512156 C 20.326594 1.520218 20.407535 1.531863 20.487581 1.547988 C 20.568074 1.564112 20.647225 1.58382 20.72593 1.607558 C 20.804187 1.631297 20.881102 1.659067 20.956676 1.69042 C 21.03225 1.721772 21.106483 1.756709 21.178479 1.795228 C 21.250923 1.833747 21.320684 1.87585 21.389103 1.921535 C 21.457075 1.966773 21.522811 2.015594 21.585864 2.06755 C 21.649364 2.119507 21.709734 2.17415 21.767868 2.232377 C 21.825554 2.290156 21.880558 2.350623 21.932431 2.414224 C 21.984305 2.477378 22.033048 2.542771 22.07866 2.610852 C 22.124273 2.678933 22.166308 2.749253 22.204766 2.821364 C 22.243224 2.893924 22.278552 2.967827 22.309854 3.043074 C 22.341157 3.118769 22.368435 3.195808 22.392136 3.27419 C 22.416284 3.352573 22.43596 3.431851 22.452059 3.512473 C 22.468157 3.592647 22.479784 3.673268 22.487834 3.754786 C 22.495883 3.836304 22.499907 3.918269 22.499907 3.999787 L 22.499907 23.999821 C 22.499907 24.081786 22.495883 24.163752 22.487834 24.244821 C 22.479784 24.326339 22.468157 24.407409 22.452059 24.487583 C 22.43596 24.568204 22.416284 24.647482 22.392136 24.725865 C 22.368435 24.804247 22.341157 24.880838 22.309854 24.956533 C 22.278552 25.032228 22.243224 25.106131 22.204766 25.178691 C 22.166308 25.250802 22.124273 25.320675 22.07866 25.388755 C 22.033048 25.456836 21.984305 25.522677 21.932431 25.585831 C 21.880558 25.649433 21.825554 25.709899 21.767868 25.767678 C 21.709734 25.825457 21.649364 25.880548 21.585864 25.932505 C 21.522811 25.984461 21.457075 26.033282 21.389103 26.07852 C 21.320684 26.124205 21.250923 26.166308 21.178479 26.204827 C 21.106483 26.243347 21.03225 26.278283 20.956676 26.309636 C 20.881102 26.340989 20.804187 26.368758 20.72593 26.392497 C 20.647225 26.416236 20.568074 26.435943 20.487581 26.452068 C 20.407535 26.467744 20.326594 26.479837 20.245207 26.487899 C 20.163372 26.495962 20.081985 26.499993 20.00015 26.499993 L 3.999915 26.499993 C 3.918081 26.499993 3.836246 26.495962 3.754859 26.487899 C 3.673471 26.479837 3.592531 26.467744 3.512485 26.452068 C 3.431992 26.435943 3.352841 26.416236 3.274136 26.392497 C 3.195879 26.368758 3.118963 26.340989 3.043389 26.309636 C 2.967815 26.278283 2.893583 26.243347 2.821586 26.204827 C 2.749143 26.166308 2.678935 26.124205 2.610963 26.07852 C 2.542991 26.033282 2.477255 25.984461 2.414202 25.932505 C 2.350702 25.880548 2.290332 25.825457 2.232198 25.767678 C 2.174511 25.709899 2.119508 25.649433 2.067634 25.585831 C 2.015314 25.522677 1.967018 25.456836 1.921405 25.388755 C 1.875793 25.320675 1.833757 25.250802 1.7953 25.178691 C 1.756395 25.106131 1.721514 25.032228 1.690211 24.956533 C 1.658909 24.880838 1.63163 24.804247 1.607482 24.725865 C 1.583782 24.647482 1.564106 24.568204 1.548007 24.487583 C 1.531908 24.407409 1.520282 24.326339 1.512232 24.244821 C 1.504183 24.163752 1.500158 24.081786 1.500158 23.999821 L 1.500158 3.999787 C 1.500158 3.918269 1.504183 3.836304 1.512232 3.754786 C 1.520282 3.673268 1.531908 3.592647 1.548007 3.512473 C 1.564106 3.431851 1.583782 3.352573 1.607482 3.27419 C 1.63163 3.195808 1.658909 3.118769 1.690211 3.043074 C 1.721514 2.967827 1.756395 2.893924 1.7953 2.821364 C 1.833757 2.749253 1.875793 2.678933 1.921405 2.610852 C 1.967018 2.542771 2.015314 2.477378 2.067634 2.414224 C 2.119508 2.350623 2.174511 2.290156 2.232198 2.232377 C 2.290332 2.17415 2.350702 2.119507 2.414202 2.06755 C 2.477255 2.015594 2.542991 1.966773 2.610963 1.921535 C 2.678935 1.87585 2.749143 1.833747 2.821586 1.795228 C 2.893583 1.756709 2.967815 1.721772 3.043389 1.69042 C 3.118963 1.659067 3.195879 1.631297 3.274136 1.607558 C 3.352841 1.58382 3.431992 1.564112 3.512485 1.547988 C 3.592531 1.531863 3.673471 1.520218 3.754859 1.512156 C 3.836246 1.504094 3.918081 1.500062 3.999915 1.500062 Z M 3.999915 1.500062 " transform="matrix(8.735223,0,0,8.721274,45.083282,27.593325)"/>
</g>
<path style=" stroke:none;fill-rule:nonzero;fill:rgb(54.508972%,58.039856%,59.999084%);fill-opacity:1;" d="M 92.582031 193.796875 L 207.851562 193.796875 L 207.851562 222.957031 L 92.582031 222.957031 Z M 92.582031 193.796875 "/>
<path style=" stroke:none;fill-rule:nonzero;fill:rgb(54.508972%,58.039856%,59.999084%);fill-opacity:1;" d="M 92.582031 140.640625 L 207.851562 140.640625 L 207.851562 169.796875 L 92.582031 169.796875 Z M 92.582031 140.640625 "/>
<path style=" stroke:none;fill-rule:nonzero;fill:rgb(54.508972%,58.039856%,59.999084%);fill-opacity:1;" d="M 92.582031 76.097656 L 150.09375 76.097656 L 150.09375 116.117188 L 92.582031 116.117188 Z M 92.582031 76.097656 "/>
</g>
</svg>
