<?xml version="1.0" encoding="UTF-8"?>
<svg xmlns="http://www.w3.org/2000/svg" xmlns:xlink="http://www.w3.org/1999/xlink" width="60px" viewBox="0 0 300 449.999984" version="1.2">
<g id="serchicon">
<path style=" stroke:none;fill-rule:nonzero;fill:rgb(86.268616%,94.509888%,97.648621%);fill-opacity:1;" d="M 253.117188 81.453125 L 220.175781 62.554688 C 218.734375 61.503906 217.191406 60.613281 215.546875 59.902344 L 215.0625 59.621094 L 215.042969 59.664062 C 206.179688 56.058594 194.730469 57.359375 182.242188 64.574219 L 80.777344 123.230469 C 52.878906 139.355469 30.054688 178.945312 30.054688 211.207031 L 30.054688 328.507812 C 30.054688 344.242188 35.507812 355.398438 44.308594 360.871094 L 44.222656 361.023438 L 80.835938 381.796875 L 101.421875 345.902344 L 182.242188 299.1875 C 210.136719 283.054688 232.96875 243.46875 232.96875 211.210938 L 232.96875 116.582031 Z M 253.117188 81.453125 "/>
<path style=" stroke:none;fill-rule:nonzero;fill:rgb(79.998779%,90.19928%,94.898987%);fill-opacity:1;" d="M 253.117188 81.453125 L 217.855469 73.171875 C 216.414062 72.121094 209.214844 72.148438 207.570312 71.425781 L 204.957031 70.378906 L 200.25 69.503906 C 191.386719 65.898438 194.730469 57.359375 182.242188 64.574219 L 80.777344 123.230469 C 52.878906 139.355469 30.054688 178.945312 30.054688 211.207031 L 30.054688 328.507812 C 30.054688 344.242188 35.507812 355.398438 44.308594 360.871094 L 44.222656 361.023438 L 80.835938 381.796875 L 101.421875 345.902344 L 182.242188 299.1875 C 210.136719 283.054688 232.96875 243.46875 232.96875 211.210938 L 232.96875 116.582031 Z M 253.117188 81.453125 "/>
<path style=" stroke:none;fill-rule:nonzero;fill:rgb(74.899292%,85.099792%,90.979004%);fill-opacity:1;" d="M 31.992188 194.308594 C 30.761719 200.046875 30.0625 205.734375 30.0625 211.207031 L 30.0625 328.507812 C 30.0625 344.242188 35.515625 355.398438 44.316406 360.871094 L 44.230469 361.023438 L 80.84375 381.796875 L 101.429688 345.902344 L 182.25 299.1875 C 186.988281 296.445312 191.570312 292.984375 195.925781 289.039062 Z M 31.992188 194.308594 "/>
<path style=" stroke:none;fill-rule:nonzero;fill:rgb(100%,100%,100%);fill-opacity:1;" d="M 115.65625 143.480469 C 87.757812 159.605469 64.929688 199.195312 64.929688 231.457031 L 64.929688 348.761719 C 64.929688 381.019531 87.757812 394.214844 115.65625 378.085938 L 217.113281 319.433594 C 245.011719 303.304688 267.84375 263.714844 267.84375 231.457031 L 267.84375 114.148438 C 267.84375 81.890625 245.011719 68.695312 217.113281 84.824219 Z M 115.65625 143.480469 "/>
<path style=" stroke:none;fill-rule:nonzero;fill:rgb(35.688782%,75.289917%,84.709167%);fill-opacity:0.098;" d="M 267.839844 114.148438 C 267.839844 81.890625 245.011719 68.695312 217.113281 84.824219 L 115.65625 143.480469 C 87.757812 159.605469 64.925781 199.195312 64.925781 231.457031 L 64.925781 348.761719 C 64.925781 381.019531 87.757812 394.214844 115.65625 378.085938 "/>
<path style=" stroke:none;fill-rule:nonzero;fill:rgb(100%,100%,100%);fill-opacity:1;" d="M 93.121094 387.0625 L 93.117188 387.0625 C 74.722656 387.0625 62.839844 372.027344 62.839844 348.761719 L 62.839844 231.457031 C 62.839844 198.449219 86.0625 158.164062 114.605469 141.664062 L 216.070312 83.015625 C 224.296875 78.257812 232.230469 75.847656 239.65625 75.847656 C 258.046875 75.847656 269.9375 90.882812 269.9375 114.152344 L 269.9375 231.460938 C 269.9375 264.464844 246.710938 304.746094 218.167969 321.25 L 116.703125 379.902344 C 108.476562 384.65625 100.546875 387.0625 93.121094 387.0625 Z M 239.65625 80.027344 C 232.976562 80.027344 225.742188 82.25 218.167969 86.625 L 116.699219 145.28125 C 89.308594 161.117188 67.019531 199.777344 67.019531 231.449219 L 67.019531 348.753906 C 67.019531 369.796875 77.019531 382.867188 93.117188 382.867188 L 93.121094 382.867188 C 99.804688 382.867188 107.027344 380.644531 114.605469 376.269531 L 216.070312 317.617188 C 243.460938 301.78125 265.75 263.125 265.75 231.453125 L 265.75 114.140625 C 265.753906 93.101562 255.753906 80.027344 239.65625 80.027344 Z M 239.65625 80.027344 "/>
<path style=" stroke:none;fill-rule:nonzero;fill:rgb(79.998779%,90.19928%,94.898987%);fill-opacity:1;" d="M 158.957031 184.515625 C 156.71875 184.515625 154.539062 183.355469 153.339844 181.273438 C 151.554688 178.167969 152.613281 174.207031 155.714844 172.414062 L 223.015625 133.507812 C 226.105469 131.710938 230.066406 132.78125 231.855469 135.886719 C 233.644531 138.988281 232.578125 142.953125 229.484375 144.738281 L 162.191406 183.644531 C 161.171875 184.238281 160.050781 184.515625 158.957031 184.515625 Z M 158.957031 184.515625 "/>
<path style=" stroke:none;fill-rule:nonzero;fill:rgb(37.649536%,49.409485%,98.81897%);fill-opacity:1;" d="M 100.050781 207.921875 C 100.054688 195.136719 109.09375 179.460938 120.140625 173.074219 C 131.199219 166.679688 140.238281 171.90625 140.234375 184.691406 C 140.238281 197.46875 131.191406 213.144531 120.140625 219.535156 C 109.09375 225.925781 100.050781 220.695312 100.050781 207.921875 Z M 100.050781 207.921875 "/>
<path style=" stroke:none;fill-rule:nonzero;fill:rgb(19.999695%,34.899902%,82.749939%);fill-opacity:1;" d="M 120.140625 219.535156 C 109.09375 225.921875 100.054688 220.695312 100.050781 207.921875 C 100.054688 195.136719 109.09375 179.460938 120.140625 173.074219 "/>
<path style=" stroke:none;fill-rule:nonzero;fill:rgb(79.998779%,90.19928%,94.898987%);fill-opacity:1;" d="M 158.957031 251.191406 C 156.71875 251.191406 154.539062 250.03125 153.339844 247.949219 C 151.554688 244.847656 152.613281 240.882812 155.714844 239.097656 L 223.015625 200.183594 C 226.105469 198.386719 230.066406 199.460938 231.855469 202.5625 C 233.644531 205.664062 232.578125 209.628906 229.484375 211.421875 L 162.191406 250.328125 C 161.171875 250.914062 160.050781 251.191406 158.957031 251.191406 Z M 158.957031 251.191406 "/>
<path style=" stroke:none;fill-rule:nonzero;fill:rgb(100%,63.919067%,6.269836%);fill-opacity:1;" d="M 100.050781 274.601562 C 100.054688 261.820312 109.09375 246.140625 120.140625 239.753906 C 131.199219 233.359375 140.238281 238.582031 140.234375 251.375 C 140.238281 264.148438 131.191406 279.828125 120.140625 286.21875 C 109.09375 292.601562 100.050781 287.371094 100.050781 274.601562 Z M 100.050781 274.601562 "/>
<path style=" stroke:none;fill-rule:nonzero;fill:rgb(97.648621%,50.19989%,3.138733%);fill-opacity:1;" d="M 120.140625 286.214844 C 109.09375 292.597656 100.054688 287.371094 100.050781 274.597656 C 100.054688 261.816406 109.09375 246.136719 120.140625 239.753906 "/>
<path style=" stroke:none;fill-rule:nonzero;fill:rgb(79.998779%,90.19928%,94.898987%);fill-opacity:1;" d="M 158.957031 317.875 C 156.71875 317.875 154.539062 316.714844 153.339844 314.632812 C 151.554688 311.527344 152.613281 307.566406 155.714844 305.773438 L 223.015625 266.867188 C 226.105469 265.070312 230.066406 266.140625 231.855469 269.246094 C 233.644531 272.347656 232.578125 276.3125 229.484375 278.101562 L 162.1875 317.003906 C 161.171875 317.597656 160.050781 317.875 158.957031 317.875 Z M 158.957031 317.875 "/>
<path style=" stroke:none;fill-rule:nonzero;fill:rgb(87.838745%,28.239441%,72.158813%);fill-opacity:1;" d="M 100.050781 341.289062 C 100.054688 328.503906 109.09375 312.828125 120.140625 306.441406 C 131.199219 300.046875 140.238281 305.273438 140.234375 318.058594 C 140.238281 330.835938 131.191406 346.511719 120.140625 352.902344 C 109.09375 359.289062 100.050781 354.0625 100.050781 341.289062 Z M 100.050781 341.289062 "/>
<path style=" stroke:none;fill-rule:nonzero;fill:rgb(75.689697%,13.729858%,62.748718%);fill-opacity:1;" d="M 120.140625 352.894531 C 109.09375 359.28125 100.054688 354.054688 100.050781 341.277344 C 100.054688 328.492188 109.09375 312.820312 120.140625 306.429688 "/>
<path style=" stroke:none;fill-rule:nonzero;fill:rgb(12.548828%,70.199585%,67.059326%);fill-opacity:1;" d="M 135.429688 171.101562 C 134.949219 170.824219 134.449219 170.589844 133.929688 170.398438 C 133.40625 170.203125 132.863281 170.050781 132.300781 169.945312 C 131.738281 169.835938 131.160156 169.769531 130.5625 169.746094 C 129.964844 169.726562 129.355469 169.746094 128.730469 169.808594 C 128.105469 169.871094 127.464844 169.980469 126.816406 170.128906 C 126.167969 170.277344 125.511719 170.46875 124.847656 170.703125 C 124.183594 170.933594 123.511719 171.210938 122.835938 171.523438 C 122.160156 171.839844 121.484375 172.195312 120.804688 172.589844 C 120.125 172.984375 119.449219 173.414062 118.773438 173.882812 C 118.09375 174.351562 117.425781 174.855469 116.757812 175.398438 C 116.089844 175.9375 115.429688 176.507812 114.78125 177.113281 C 114.128906 177.71875 113.488281 178.355469 112.859375 179.019531 C 112.230469 179.683594 111.617188 180.375 111.015625 181.09375 C 110.414062 181.808594 109.832031 182.550781 109.265625 183.3125 C 108.695312 184.078125 108.148438 184.859375 107.621094 185.664062 C 107.09375 186.464844 106.589844 187.285156 106.105469 188.117188 C 105.621094 188.953125 105.164062 189.796875 104.730469 190.65625 C 104.296875 191.511719 103.886719 192.375 103.507812 193.246094 C 103.125 194.121094 102.773438 194.996094 102.449219 195.871094 C 102.125 196.75 101.832031 197.628906 101.570312 198.503906 C 101.304688 199.378906 101.074219 200.25 100.871094 201.117188 C 100.671875 201.984375 100.5 202.839844 100.363281 203.6875 C 100.226562 204.53125 100.125 205.367188 100.054688 206.1875 C 99.980469 207.007812 99.945312 207.808594 99.941406 208.59375 C 99.9375 209.378906 99.964844 210.144531 100.027344 210.886719 C 100.089844 211.628906 100.183594 212.347656 100.3125 213.039062 C 100.441406 213.734375 100.601562 214.398438 100.796875 215.035156 C 100.988281 215.671875 101.214844 216.277344 101.46875 216.851562 C 101.726562 217.425781 102.011719 217.96875 102.328125 218.472656 C 102.644531 218.980469 102.988281 219.449219 103.363281 219.882812 C 103.734375 220.320312 104.136719 220.714844 104.5625 221.070312 C 104.992188 221.425781 105.445312 221.746094 105.921875 222.019531 C 106.398438 222.296875 106.898438 222.53125 107.421875 222.726562 C 107.941406 222.917969 108.484375 223.070312 109.046875 223.179688 C 109.609375 223.285156 110.1875 223.351562 110.785156 223.375 C 111.382812 223.398438 111.992188 223.378906 112.621094 223.3125 C 113.246094 223.25 113.882812 223.144531 114.53125 222.996094 C 115.179688 222.84375 115.835938 222.652344 116.5 222.421875 C 117.167969 222.1875 117.835938 221.914062 118.511719 221.597656 C 119.1875 221.28125 119.863281 220.925781 120.542969 220.535156 C 121.222656 220.140625 121.902344 219.707031 122.578125 219.238281 C 123.253906 218.769531 123.925781 218.265625 124.589844 217.726562 C 125.257812 217.1875 125.917969 216.613281 126.570312 216.007812 C 127.21875 215.402344 127.859375 214.769531 128.488281 214.105469 C 129.117188 213.4375 129.734375 212.75 130.332031 212.03125 C 130.933594 211.3125 131.519531 210.570312 132.085938 209.808594 C 132.652344 209.042969 133.199219 208.261719 133.726562 207.457031 C 134.253906 206.65625 134.761719 205.835938 135.242188 205.003906 C 135.726562 204.167969 136.183594 203.324219 136.621094 202.46875 C 137.054688 201.609375 137.460938 200.746094 137.839844 199.875 C 138.222656 199.003906 138.574219 198.128906 138.898438 197.25 C 139.222656 196.371094 139.515625 195.496094 139.78125 194.617188 C 140.042969 193.742188 140.277344 192.871094 140.476562 192.003906 C 140.679688 191.140625 140.847656 190.28125 140.984375 189.4375 C 141.121094 188.589844 141.226562 187.757812 141.296875 186.9375 C 141.367188 186.117188 141.402344 185.3125 141.410156 184.527344 C 141.414062 183.742188 141.382812 182.980469 141.320312 182.238281 C 141.257812 181.492188 141.164062 180.777344 141.035156 180.082031 C 140.90625 179.390625 140.746094 178.722656 140.554688 178.085938 C 140.359375 177.449219 140.136719 176.84375 139.878906 176.269531 C 139.625 175.695312 139.339844 175.15625 139.023438 174.648438 C 138.707031 174.140625 138.359375 173.671875 137.988281 173.238281 C 137.613281 172.804688 137.210938 172.410156 136.785156 172.050781 C 136.355469 171.695312 135.90625 171.378906 135.429688 171.101562 Z M 135.429688 171.101562 "/>
<path style=" stroke:none;fill-rule:nonzero;fill:rgb(12.548828%,70.199585%,67.059326%);fill-opacity:1;" d="M 135.429688 237.351562 C 134.949219 237.074219 134.449219 236.839844 133.929688 236.648438 C 133.40625 236.453125 132.863281 236.300781 132.300781 236.195312 C 131.738281 236.085938 131.160156 236.019531 130.5625 235.996094 C 129.964844 235.976562 129.355469 235.996094 128.730469 236.058594 C 128.105469 236.121094 127.464844 236.230469 126.816406 236.378906 C 126.167969 236.527344 125.511719 236.71875 124.847656 236.953125 C 124.183594 237.183594 123.511719 237.460938 122.835938 237.773438 C 122.160156 238.089844 121.484375 238.445312 120.804688 238.839844 C 120.125 239.234375 119.449219 239.664062 118.773438 240.132812 C 118.09375 240.601562 117.425781 241.105469 116.757812 241.648438 C 116.089844 242.1875 115.429688 242.757812 114.78125 243.363281 C 114.128906 243.96875 113.488281 244.605469 112.859375 245.269531 C 112.230469 245.933594 111.617188 246.625 111.015625 247.34375 C 110.414062 248.058594 109.832031 248.800781 109.265625 249.5625 C 108.695312 250.328125 108.148438 251.109375 107.621094 251.914062 C 107.09375 252.714844 106.589844 253.535156 106.105469 254.367188 C 105.621094 255.203125 105.164062 256.046875 104.730469 256.90625 C 104.296875 257.761719 103.886719 258.625 103.507812 259.496094 C 103.125 260.371094 102.773438 261.246094 102.449219 262.121094 C 102.125 263 101.832031 263.878906 101.570312 264.753906 C 101.304688 265.628906 101.074219 266.5 100.871094 267.367188 C 100.671875 268.234375 100.5 269.089844 100.363281 269.9375 C 100.226562 270.78125 100.125 271.617188 100.054688 272.4375 C 99.980469 273.257812 99.945312 274.058594 99.941406 274.84375 C 99.9375 275.628906 99.964844 276.394531 100.027344 277.136719 C 100.089844 277.878906 100.183594 278.597656 100.3125 279.289062 C 100.441406 279.984375 100.601562 280.648438 100.796875 281.285156 C 100.988281 281.921875 101.214844 282.527344 101.46875 283.101562 C 101.726562 283.675781 102.011719 284.21875 102.328125 284.722656 C 102.644531 285.230469 102.988281 285.699219 103.363281 286.132812 C 103.734375 286.570312 104.136719 286.964844 104.5625 287.320312 C 104.992188 287.675781 105.445312 287.996094 105.921875 288.269531 C 106.398438 288.546875 106.898438 288.78125 107.421875 288.976562 C 107.941406 289.167969 108.484375 289.320312 109.046875 289.429688 C 109.609375 289.535156 110.1875 289.601562 110.785156 289.625 C 111.382812 289.648438 111.992188 289.628906 112.621094 289.5625 C 113.246094 289.5 113.882812 289.394531 114.53125 289.246094 C 115.179688 289.09375 115.835938 288.902344 116.5 288.671875 C 117.167969 288.4375 117.835938 288.164062 118.511719 287.847656 C 119.1875 287.53125 119.863281 287.175781 120.542969 286.785156 C 121.222656 286.390625 121.902344 285.957031 122.578125 285.488281 C 123.253906 285.019531 123.925781 284.515625 124.589844 283.976562 C 125.257812 283.4375 125.917969 282.863281 126.570312 282.257812 C 127.21875 281.652344 127.859375 281.019531 128.488281 280.355469 C 129.117188 279.6875 129.734375 279 130.332031 278.28125 C 130.933594 277.5625 131.519531 276.820312 132.085938 276.058594 C 132.652344 275.292969 133.199219 274.511719 133.726562 273.707031 C 134.253906 272.90625 134.761719 272.085938 135.242188 271.253906 C 135.726562 270.417969 136.183594 269.574219 136.621094 268.71875 C 137.054688 267.859375 137.460938 266.996094 137.839844 266.125 C 138.222656 265.253906 138.574219 264.378906 138.898438 263.5 C 139.222656 262.621094 139.515625 261.746094 139.78125 260.867188 C 140.042969 259.992188 140.277344 259.121094 140.476562 258.253906 C 140.679688 257.390625 140.847656 256.53125 140.984375 255.6875 C 141.121094 254.839844 141.226562 254.007812 141.296875 253.1875 C 141.367188 252.367188 141.402344 251.5625 141.410156 250.777344 C 141.414062 249.992188 141.382812 249.230469 141.320312 248.488281 C 141.257812 247.742188 141.164062 247.027344 141.035156 246.332031 C 140.90625 245.640625 140.746094 244.972656 140.554688 244.335938 C 140.359375 243.699219 140.136719 243.09375 139.878906 242.519531 C 139.625 241.945312 139.339844 241.40625 139.023438 240.898438 C 138.707031 240.390625 138.359375 239.921875 137.988281 239.488281 C 137.613281 239.054688 137.210938 238.660156 136.785156 238.300781 C 136.355469 237.945312 135.90625 237.628906 135.429688 237.351562 Z M 135.429688 237.351562 "/>
<path style=" stroke:none;fill-rule:nonzero;fill:rgb(12.548828%,70.199585%,67.059326%);fill-opacity:1;" d="M 135.8125 303.625 C 135.324219 303.339844 134.8125 303.101562 134.277344 302.902344 C 133.742188 302.703125 133.183594 302.550781 132.609375 302.4375 C 132.03125 302.328125 131.4375 302.257812 130.824219 302.234375 C 130.210938 302.214844 129.585938 302.234375 128.941406 302.300781 C 128.300781 302.363281 127.648438 302.472656 126.984375 302.625 C 126.316406 302.78125 125.644531 302.976562 124.960938 303.214844 C 124.277344 303.453125 123.589844 303.734375 122.898438 304.058594 C 122.207031 304.382812 121.511719 304.746094 120.8125 305.152344 C 120.117188 305.554688 119.421875 305.996094 118.730469 306.480469 C 118.035156 306.960938 117.347656 307.476562 116.664062 308.03125 C 115.976562 308.585938 115.300781 309.171875 114.632812 309.792969 C 113.964844 310.414062 113.308594 311.066406 112.664062 311.746094 C 112.019531 312.429688 111.390625 313.136719 110.773438 313.875 C 110.15625 314.609375 109.558594 315.371094 108.976562 316.152344 C 108.394531 316.9375 107.832031 317.738281 107.292969 318.5625 C 106.75 319.386719 106.230469 320.226562 105.734375 321.082031 C 105.242188 321.9375 104.769531 322.804688 104.324219 323.683594 C 103.878906 324.5625 103.460938 325.449219 103.070312 326.34375 C 102.679688 327.238281 102.320312 328.132812 101.988281 329.035156 C 101.652344 329.9375 101.351562 330.835938 101.082031 331.734375 C 100.8125 332.632812 100.574219 333.527344 100.367188 334.414062 C 100.160156 335.304688 99.988281 336.179688 99.847656 337.050781 C 99.707031 337.917969 99.601562 338.773438 99.527344 339.613281 C 99.453125 340.457031 99.417969 341.28125 99.410156 342.085938 C 99.40625 342.890625 99.4375 343.671875 99.5 344.4375 C 99.566406 345.199219 99.664062 345.933594 99.792969 346.644531 C 99.925781 347.355469 100.089844 348.039062 100.289062 348.691406 C 100.488281 349.34375 100.71875 349.964844 100.980469 350.554688 C 101.242188 351.144531 101.535156 351.699219 101.859375 352.21875 C 102.183594 352.738281 102.539062 353.222656 102.921875 353.667969 C 103.304688 354.113281 103.714844 354.515625 104.15625 354.882812 C 104.59375 355.25 105.058594 355.574219 105.546875 355.859375 C 106.035156 356.140625 106.550781 356.382812 107.085938 356.582031 C 107.621094 356.777344 108.175781 356.933594 108.753906 357.046875 C 109.328125 357.15625 109.925781 357.222656 110.535156 357.246094 C 111.148438 357.269531 111.777344 357.25 112.417969 357.183594 C 113.058594 357.117188 113.714844 357.007812 114.378906 356.855469 C 115.042969 356.703125 115.71875 356.507812 116.398438 356.265625 C 117.082031 356.027344 117.769531 355.746094 118.460938 355.421875 C 119.15625 355.101562 119.851562 354.734375 120.546875 354.332031 C 121.242188 353.929688 121.9375 353.484375 122.632812 353.003906 C 123.324219 352.523438 124.015625 352.003906 124.699219 351.453125 C 125.382812 350.898438 126.058594 350.3125 126.726562 349.691406 C 127.394531 349.070312 128.050781 348.417969 128.695312 347.738281 C 129.339844 347.054688 129.972656 346.347656 130.589844 345.609375 C 131.203125 344.875 131.804688 344.113281 132.386719 343.332031 C 132.96875 342.546875 133.527344 341.742188 134.070312 340.917969 C 134.609375 340.097656 135.128906 339.257812 135.625 338.402344 C 136.121094 337.546875 136.589844 336.679688 137.035156 335.800781 C 137.480469 334.921875 137.898438 334.035156 138.289062 333.140625 C 138.679688 332.246094 139.042969 331.347656 139.375 330.449219 C 139.707031 329.546875 140.007812 328.648438 140.277344 327.75 C 140.550781 326.847656 140.789062 325.957031 140.996094 325.066406 C 141.199219 324.179688 141.375 323.300781 141.515625 322.433594 C 141.65625 321.5625 141.761719 320.710938 141.832031 319.867188 C 141.90625 319.027344 141.945312 318.203125 141.949219 317.398438 C 141.953125 316.59375 141.925781 315.808594 141.859375 315.046875 C 141.796875 314.285156 141.699219 313.550781 141.566406 312.839844 C 141.433594 312.128906 141.269531 311.445312 141.070312 310.792969 C 140.875 310.136719 140.644531 309.515625 140.382812 308.925781 C 140.117188 308.339844 139.824219 307.785156 139.5 307.265625 C 139.175781 306.746094 138.824219 306.261719 138.4375 305.816406 C 138.054688 305.371094 137.644531 304.964844 137.207031 304.601562 C 136.769531 304.234375 136.304688 303.910156 135.8125 303.625 Z M 135.8125 303.625 "/>
</g>
</svg>
