<?xml version="1.0" encoding="UTF-8"?>
<svg xmlns="http://www.w3.org/2000/svg" xmlns:xlink="http://www.w3.org/1999/xlink" width="34px" viewBox="0 0 300 299.999988" version="1.2">
<defs>
<clipPath id="clip1">
  <path d="M 44.363281 26.90625 L 255.863281 26.90625 L 255.863281 272.71875 L 44.363281 272.71875 Z M 44.363281 26.90625 "/>
</clipPath>
<clipPath id="clip2">
  <path d="M 61.875 76.121094 L 238.125 76.121094 L 238.125 270.371094 L 61.875 270.371094 Z M 61.875 76.121094 "/>
</clipPath>
</defs>
<g id="surface1">
<g clip-path="url(#clip1)" clip-rule="nonzero">
<path style="fill:none;stroke-width:3;stroke-linecap:round;stroke-linejoin:round;stroke:rgb(54.508972%,58.039856%,60.389709%);stroke-opacity:1;stroke-miterlimit:4;" d="M 3.999938 1.499954 L 20.000088 1.499954 C 20.082097 1.499954 20.163663 1.503959 20.245228 1.511968 C 20.326351 1.519977 20.407473 1.531991 20.487709 1.548009 C 20.567944 1.564027 20.647293 1.58405 20.725756 1.607633 C 20.804218 1.631215 20.880908 1.658802 20.956711 1.690394 C 21.032513 1.721541 21.1061 1.756692 21.178356 1.795403 C 21.250613 1.833669 21.320653 1.875939 21.388919 1.921325 C 21.457186 1.96671 21.522793 2.015655 21.586184 2.067269 C 21.649131 2.119329 21.709862 2.174503 21.767933 2.232347 C 21.825561 2.29019 21.880529 2.350704 21.932394 2.413887 C 21.984259 2.477515 22.033021 2.542924 22.07868 2.611001 C 22.124339 2.679079 22.166009 2.749382 22.205018 2.821464 C 22.243585 2.893546 22.278161 2.967853 22.309635 3.043495 C 22.341109 3.119137 22.368593 3.196114 22.392531 3.274426 C 22.416025 3.352738 22.435973 3.431939 22.451932 3.512476 C 22.46789 3.592567 22.479859 3.673548 22.487838 3.754975 C 22.495817 3.836401 22.499807 3.918272 22.499807 4.000144 L 22.499807 23.99988 C 22.499807 24.081751 22.495817 24.163622 22.487838 24.245049 C 22.479859 24.326475 22.46789 24.407456 22.451932 24.487548 C 22.435973 24.568084 22.416025 24.647286 22.392531 24.725598 C 22.368593 24.803909 22.341109 24.880886 22.309635 24.956528 C 22.278161 25.03217 22.243585 25.106477 22.205018 25.17856 C 22.166009 25.250642 22.124339 25.320944 22.07868 25.389022 C 22.033021 25.4571 21.984259 25.522508 21.932394 25.586136 C 21.880529 25.64932 21.825561 25.709833 21.767933 25.767677 C 21.709862 25.825521 21.649131 25.880695 21.586184 25.932309 C 21.522793 25.984369 21.457186 26.033314 21.388919 26.078699 C 21.320653 26.124084 21.250613 26.166355 21.178356 26.204621 C 21.1061 26.243331 21.032513 26.278483 20.956711 26.309629 C 20.880908 26.341221 20.804218 26.368363 20.725756 26.392391 C 20.647293 26.415973 20.567944 26.435996 20.487709 26.452014 C 20.407473 26.468033 20.326351 26.480046 20.245228 26.488055 C 20.163663 26.496065 20.082097 26.500069 20.000088 26.500069 L 3.999938 26.500069 C 3.917929 26.500069 3.836363 26.496065 3.754798 26.488055 C 3.673675 26.480046 3.592553 26.468033 3.512317 26.452014 C 3.432082 26.435996 3.352733 26.415973 3.27427 26.392391 C 3.195808 26.368363 3.119118 26.341221 3.043315 26.309629 C 2.967513 26.278483 2.893926 26.243331 2.82167 26.204621 C 2.749413 26.166355 2.679373 26.124084 2.611107 26.078699 C 2.54284 26.033314 2.477233 25.984369 2.413842 25.932309 C 2.350895 25.880695 2.290164 25.825521 2.232093 25.767677 C 2.174465 25.709833 2.119497 25.64932 2.067632 25.586136 C 2.015323 25.522508 1.967005 25.4571 1.921346 25.389022 C 1.875687 25.320944 1.833574 25.250642 1.795008 25.17856 C 1.756441 25.106477 1.721421 25.03217 1.690391 24.956528 C 1.658917 24.880886 1.631433 24.803909 1.607495 24.725598 C 1.584001 24.647286 1.564053 24.568084 1.548094 24.487548 C 1.532136 24.407456 1.520167 24.326475 1.512188 24.245049 C 1.504209 24.163622 1.500219 24.081751 1.500219 23.99988 L 1.500219 4.000144 C 1.500219 3.918272 1.504209 3.836401 1.512188 3.754975 C 1.520167 3.673548 1.532136 3.592567 1.548094 3.512476 C 1.564053 3.431939 1.584001 3.352738 1.607495 3.274426 C 1.631433 3.196114 1.658917 3.119137 1.690391 3.043495 C 1.721421 2.967853 1.756441 2.893546 1.795008 2.821464 C 1.833574 2.749382 1.875687 2.679079 1.921346 2.611001 C 1.967005 2.542924 2.015323 2.477515 2.067632 2.413887 C 2.119497 2.350704 2.174465 2.29019 2.232093 2.232347 C 2.290164 2.174503 2.350895 2.119329 2.413842 2.067269 C 2.477233 2.015655 2.54284 1.96671 2.611107 1.921325 C 2.679373 1.875939 2.749413 1.833669 2.82167 1.795403 C 2.893926 1.756692 2.967513 1.721541 3.043315 1.690394 C 3.119118 1.658802 3.195808 1.631215 3.27427 1.607633 C 3.352733 1.58405 3.432082 1.564027 3.512317 1.548009 C 3.592553 1.531991 3.673675 1.519977 3.754798 1.511968 C 3.836363 1.503959 3.917929 1.499954 3.999938 1.499954 Z M 3.999938 1.499954 " transform="matrix(8.811929,0,0,8.779022,44.487209,26.906087)"/>
</g>
<g clip-path="url(#clip2)" clip-rule="nonzero">
<path style=" stroke:none;fill-rule:nonzero;fill:rgb(54.508972%,58.039856%,60.389709%);fill-opacity:1;" d="M 150 173.433594 C 151.617188 173.464844 153.234375 173.417969 154.847656 173.289062 C 156.460938 173.160156 158.0625 172.949219 159.65625 172.664062 C 161.25 172.375 162.824219 172.011719 164.378906 171.570312 C 165.9375 171.128906 167.46875 170.609375 168.976562 170.015625 C 170.484375 169.421875 171.957031 168.757812 173.398438 168.019531 C 174.839844 167.28125 176.242188 166.472656 177.605469 165.59375 C 178.96875 164.71875 180.285156 163.777344 181.554688 162.769531 C 182.824219 161.765625 184.042969 160.695312 185.210938 159.570312 C 186.375 158.445312 187.484375 157.261719 188.535156 156.027344 C 189.585938 154.789062 190.570312 153.507812 191.496094 152.171875 C 192.421875 150.839844 193.277344 149.464844 194.070312 148.046875 C 194.859375 146.628906 195.578125 145.175781 196.226562 143.6875 C 196.875 142.195312 197.449219 140.679688 197.949219 139.132812 C 198.449219 137.589844 198.871094 136.023438 199.21875 134.4375 C 199.5625 132.847656 199.832031 131.25 200.019531 129.636719 C 200.210938 128.023438 200.320312 126.402344 200.351562 124.777344 C 200.320312 123.152344 200.210938 121.535156 200.019531 119.921875 C 199.832031 118.308594 199.5625 116.707031 199.21875 115.121094 C 198.871094 113.535156 198.449219 111.96875 197.949219 110.421875 C 197.449219 108.875 196.875 107.359375 196.226562 105.871094 C 195.578125 104.382812 194.859375 102.929688 194.070312 101.511719 C 193.277344 100.09375 192.421875 98.71875 191.496094 97.382812 C 190.570312 96.050781 189.585938 94.765625 188.535156 93.53125 C 187.484375 92.292969 186.375 91.113281 185.210938 89.984375 C 184.042969 88.859375 182.824219 87.792969 181.554688 86.785156 C 180.285156 85.78125 178.96875 84.839844 177.605469 83.960938 C 176.242188 83.085938 174.839844 82.277344 173.398438 81.539062 C 171.957031 80.800781 170.484375 80.132812 168.976562 79.539062 C 167.46875 78.945312 165.9375 78.429688 164.378906 77.988281 C 162.824219 77.542969 161.25 77.179688 159.65625 76.894531 C 158.0625 76.605469 156.460938 76.398438 154.847656 76.269531 C 153.234375 76.140625 151.617188 76.089844 150 76.121094 C 148.378906 76.089844 146.765625 76.140625 145.152344 76.269531 C 143.539062 76.398438 141.933594 76.605469 140.34375 76.894531 C 138.75 77.179688 137.171875 77.542969 135.617188 77.988281 C 134.058594 78.429688 132.527344 78.945312 131.019531 79.539062 C 129.515625 80.132812 128.039062 80.800781 126.597656 81.539062 C 125.15625 82.277344 123.753906 83.085938 122.390625 83.960938 C 121.03125 84.839844 119.714844 85.78125 118.441406 86.785156 C 117.171875 87.792969 115.953125 88.859375 114.789062 89.984375 C 113.621094 91.113281 112.515625 92.292969 111.464844 93.53125 C 110.414062 94.765625 109.425781 96.050781 108.5 97.382812 C 107.574219 98.71875 106.71875 100.09375 105.929688 101.511719 C 105.136719 102.929688 104.417969 104.382812 103.769531 105.871094 C 103.121094 107.359375 102.550781 108.875 102.050781 110.421875 C 101.550781 111.96875 101.125 113.535156 100.78125 115.121094 C 100.433594 116.707031 100.164062 118.308594 99.976562 119.921875 C 99.785156 121.535156 99.675781 123.152344 99.644531 124.777344 C 99.675781 126.402344 99.785156 128.023438 99.976562 129.636719 C 100.164062 131.25 100.433594 132.847656 100.78125 134.4375 C 101.125 136.023438 101.550781 137.589844 102.050781 139.132812 C 102.550781 140.679688 103.121094 142.195312 103.769531 143.6875 C 104.417969 145.175781 105.136719 146.628906 105.929688 148.046875 C 106.71875 149.464844 107.574219 150.839844 108.5 152.171875 C 109.425781 153.507812 110.414062 154.789062 111.464844 156.027344 C 112.515625 157.261719 113.621094 158.445312 114.789062 159.570312 C 115.953125 160.695312 117.171875 161.765625 118.441406 162.769531 C 119.714844 163.777344 121.03125 164.71875 122.390625 165.59375 C 123.753906 166.472656 125.15625 167.28125 126.597656 168.019531 C 128.039062 168.757812 129.515625 169.421875 131.019531 170.015625 C 132.527344 170.609375 134.058594 171.128906 135.617188 171.570312 C 137.171875 172.011719 138.75 172.375 140.34375 172.664062 C 141.933594 172.949219 143.539062 173.160156 145.152344 173.289062 C 146.765625 173.417969 148.378906 173.464844 150 173.433594 Z M 185.25 185.597656 L 178.675781 185.597656 C 176.421875 186.597656 174.125 187.480469 171.78125 188.238281 C 169.4375 188.996094 167.058594 189.632812 164.652344 190.144531 C 162.242188 190.65625 159.8125 191.039062 157.363281 191.296875 C 154.914062 191.550781 152.457031 191.679688 149.996094 191.679688 C 147.53125 191.679688 145.074219 191.550781 142.625 191.296875 C 140.175781 191.039062 137.746094 190.65625 135.335938 190.144531 C 132.929688 189.632812 130.550781 188.996094 128.207031 188.238281 C 125.863281 187.480469 123.566406 186.597656 121.3125 185.597656 L 114.75 185.597656 C 113.050781 185.566406 111.351562 185.621094 109.660156 185.753906 C 107.964844 185.890625 106.28125 186.109375 104.609375 186.410156 C 102.9375 186.710938 101.285156 187.09375 99.648438 187.558594 C 98.011719 188.023438 96.40625 188.566406 94.824219 189.191406 C 93.242188 189.8125 91.691406 190.511719 90.179688 191.289062 C 88.667969 192.066406 87.195312 192.914062 85.761719 193.832031 C 84.332031 194.753906 82.949219 195.742188 81.617188 196.800781 C 80.28125 197.855469 79.003906 198.976562 77.78125 200.160156 C 76.554688 201.34375 75.390625 202.582031 74.289062 203.878906 C 73.1875 205.179688 72.148438 206.527344 71.175781 207.925781 C 70.207031 209.328125 69.304688 210.769531 68.476562 212.257812 C 67.644531 213.746094 66.890625 215.273438 66.210938 216.835938 C 65.53125 218.398438 64.925781 219.992188 64.402344 221.613281 C 63.878906 223.238281 63.433594 224.882812 63.070312 226.546875 C 62.703125 228.214844 62.421875 229.894531 62.222656 231.589844 C 62.023438 233.28125 61.90625 234.984375 61.875 236.6875 L 61.875 252.496094 C 61.882812 253.105469 61.925781 253.714844 61.996094 254.320312 C 62.066406 254.925781 62.164062 255.527344 62.292969 256.121094 C 62.421875 256.71875 62.582031 257.304688 62.765625 257.886719 C 62.953125 258.464844 63.167969 259.035156 63.410156 259.59375 C 63.652344 260.152344 63.921875 260.699219 64.21875 261.230469 C 64.515625 261.765625 64.835938 262.28125 65.183594 262.78125 C 65.53125 263.28125 65.902344 263.761719 66.296875 264.226562 C 66.6875 264.691406 67.105469 265.136719 67.542969 265.558594 C 67.980469 265.980469 68.4375 266.378906 68.914062 266.757812 C 69.390625 267.136719 69.886719 267.488281 70.394531 267.816406 C 70.90625 268.148438 71.433594 268.449219 71.976562 268.726562 C 72.515625 269.003906 73.070312 269.253906 73.636719 269.476562 C 74.199219 269.695312 74.777344 269.890625 75.359375 270.054688 C 75.945312 270.222656 76.535156 270.355469 77.132812 270.464844 C 77.734375 270.570312 78.335938 270.648438 78.941406 270.695312 C 79.546875 270.742188 80.152344 270.761719 80.757812 270.746094 L 219.238281 270.746094 C 219.84375 270.761719 220.453125 270.742188 221.058594 270.695312 C 221.664062 270.648438 222.265625 270.570312 222.863281 270.464844 C 223.460938 270.359375 224.050781 270.222656 224.636719 270.054688 C 225.21875 269.890625 225.792969 269.699219 226.359375 269.476562 C 226.925781 269.253906 227.480469 269.003906 228.019531 268.726562 C 228.5625 268.453125 229.085938 268.148438 229.597656 267.820312 C 230.109375 267.492188 230.605469 267.136719 231.082031 266.761719 C 231.558594 266.382812 232.015625 265.984375 232.453125 265.5625 C 232.890625 265.136719 233.304688 264.695312 233.699219 264.230469 C 234.09375 263.769531 234.464844 263.285156 234.808594 262.785156 C 235.15625 262.285156 235.480469 261.769531 235.773438 261.238281 C 236.070312 260.703125 236.339844 260.160156 236.582031 259.601562 C 236.824219 259.042969 237.039062 258.472656 237.226562 257.894531 C 237.414062 257.3125 237.574219 256.726562 237.703125 256.128906 C 237.832031 255.535156 237.929688 254.933594 238 254.328125 C 238.070312 253.722656 238.113281 253.117188 238.125 252.507812 L 238.125 236.6875 C 238.089844 234.984375 237.972656 233.28125 237.773438 231.589844 C 237.574219 229.894531 237.292969 228.214844 236.929688 226.546875 C 236.5625 224.882812 236.121094 223.238281 235.59375 221.617188 C 235.070312 219.992188 234.46875 218.398438 233.785156 216.835938 C 233.105469 215.273438 232.351562 213.746094 231.519531 212.257812 C 230.691406 210.769531 229.789062 209.328125 228.820312 207.925781 C 227.847656 206.527344 226.8125 205.179688 225.707031 203.878906 C 224.605469 202.582031 223.441406 201.34375 222.21875 200.160156 C 220.992188 198.976562 219.714844 197.855469 218.378906 196.800781 C 217.046875 195.742188 215.664062 194.753906 214.234375 193.832031 C 212.804688 192.914062 211.332031 192.066406 209.816406 191.289062 C 208.304688 190.511719 206.757812 189.8125 205.175781 189.191406 C 203.59375 188.566406 201.984375 188.023438 200.347656 187.558594 C 198.714844 187.09375 197.058594 186.710938 195.386719 186.410156 C 193.714844 186.109375 192.03125 185.890625 190.339844 185.753906 C 188.644531 185.621094 186.949219 185.566406 185.25 185.597656 Z M 185.25 185.597656 "/>
</g>
</g>
</svg>
