<?xml version="1.0" encoding="UTF-8"?>
<svg xmlns="http://www.w3.org/2000/svg" xmlns:xlink="http://www.w3.org/1999/xlink" width="18px" viewBox="0 0 262.5 337.500003" version="1.2">
<defs>
<clipPath id="remove4">
  <path d="M 31 106 L 232 106 L 232 307 L 31 307 Z M 31 106 "/>
</clipPath>
<clipPath id="remove5">
  <path d="M -54.367188 206.320312 L 131.25 20.707031 L 316.867188 206.320312 L 131.25 391.9375 Z M -54.367188 206.320312 "/>
</clipPath>
<clipPath id="remove6">
  <path d="M -54.367188 206.320312 L 131.25 20.707031 L 316.867188 206.320312 L 131.25 391.9375 Z M -54.367188 206.320312 "/>
</clipPath>
</defs>
<g id="removeicon2">
<g clip-path="url(#remove4)" clip-rule="nonzero">
<g clip-path="url(#remove5)" clip-rule="nonzero">
<g clip-path="url(#remove6)" clip-rule="nonzero">
<path style=" stroke:none;fill-rule:nonzero;fill:rgb(86.669922%,23.139954%,39.99939%);fill-opacity:1;" d="M 189.253906 113.511719 L 131.25 171.519531 L 73.246094 113.511719 C 63.632812 103.902344 48.054688 103.902344 38.441406 113.511719 C 28.832031 123.125 28.832031 138.703125 38.441406 148.316406 L 96.445312 206.320312 L 38.441406 264.324219 C 28.832031 273.9375 28.832031 289.519531 38.441406 299.128906 C 48.054688 308.742188 63.632812 308.742188 73.246094 299.128906 L 131.25 241.125 L 189.253906 299.128906 C 198.867188 308.742188 214.445312 308.742188 224.058594 299.128906 C 233.667969 289.519531 233.667969 273.9375 224.058594 264.324219 L 166.054688 206.320312 L 224.058594 148.316406 C 233.667969 138.703125 233.667969 123.125 224.058594 113.511719 C 214.445312 103.902344 198.867188 103.902344 189.253906 113.511719 Z M 189.253906 113.511719 "/>
</g>
</g>
</g>
</g>
</svg>
