<?xml version="1.0" encoding="UTF-8"?>
<svg xmlns="http://www.w3.org/2000/svg" xmlns:xlink="http://www.w3.org/1999/xlink" width="34px" viewBox="0 0 300 299.999988" version="1.2">
<defs>
<clipPath id="clip1">
  <path d="M 44.363281 26.90625 L 255.863281 26.90625 L 255.863281 272.71875 L 44.363281 272.71875 Z M 44.363281 26.90625 "/>
</clipPath>
</defs>
<g id="surface1">
<g clip-path="url(#clip1)" clip-rule="nonzero">
<path style=" stroke:none;fill-rule:nonzero;fill:rgb(54.508972%,58.039856%,60.389709%);fill-opacity:1;" d="M 229.539062 224.261719 L 229.539062 54.582031 C 229.128906 54.113281 227.839844 53.242188 225.761719 53.242188 L 74.699219 53.242188 C 72.621094 53.242188 71.332031 54.113281 70.921875 54.582031 L 70.921875 224.261719 L 135.851562 182.335938 C 140.226562 179.511719 145.226562 178.101562 150.230469 178.101562 C 155.234375 178.101562 160.234375 179.511719 164.609375 182.335938 L 229.539062 224.261719 M 255.972656 272.71875 L 150.230469 204.4375 L 44.488281 272.71875 L 44.488281 54.21875 C 44.488281 39.132812 58.015625 26.90625 74.699219 26.90625 L 225.761719 26.90625 C 242.445312 26.90625 255.972656 39.132812 255.972656 54.21875 Z M 255.972656 272.71875 "/>
</g>
<path style=" stroke:none;fill-rule:nonzero;fill:rgb(54.508972%,58.039856%,60.389709%);fill-opacity:1;" d="M 67.507812 52.332031 L 232.574219 52.332031 L 232.574219 89.316406 L 67.507812 89.316406 Z M 67.507812 52.332031 "/>
</g>
</svg>
