<?xml version="1.0" encoding="UTF-8"?>
<svg xmlns="http://www.w3.org/2000/svg" xmlns:xlink="http://www.w3.org/1999/xlink" height="28px" viewBox="0 0 244.5 284.999983" version="1.2">
<defs>
<clipPath id="abm1">
  <path d="M 0 0.339844 L 244 0.339844 L 244 284.707031 L 0 284.707031 Z M 0 0.339844 "/>
</clipPath>
</defs>
<g id="book1">
<g clip-path="url(#abm1)" clip-rule="nonzero">
<path style=" stroke:none;fill-rule:nonzero;fill:rgb(54.508972%,58.039856%,60.389709%);fill-opacity:1;" d="M 213.824219 229.242188 L 213.824219 32.4375 C 213.351562 31.894531 211.863281 30.886719 209.460938 30.886719 L 35.039062 30.886719 C 32.636719 30.886719 31.148438 31.894531 30.675781 32.4375 L 30.675781 229.242188 L 105.648438 180.613281 C 110.699219 177.339844 116.472656 175.699219 122.25 175.699219 C 128.027344 175.699219 133.800781 177.339844 138.851562 180.613281 L 213.824219 229.242188 M 244.347656 285.445312 L 122.25 206.246094 L 0.152344 285.445312 L 0.152344 32.015625 C 0.152344 14.519531 15.769531 0.339844 35.039062 0.339844 L 209.460938 0.339844 C 228.730469 0.339844 244.347656 14.519531 244.347656 32.015625 Z M 244.347656 285.445312 "/>
</g>
</g>
</svg>
