<?xml version="1.0" encoding="UTF-8"?>
<svg xmlns="http://www.w3.org/2000/svg" xmlns:xlink="http://www.w3.org/1999/xlink" width="18px" viewBox="0 0 262.5 337.500003" version="1.2">
<defs>
<clipPath id="add2">
  <path d="M 0 75.070312 L 262 75.070312 L 262 336.929688 L 0 336.929688 Z M 0 75.070312 "/>
</clipPath>
</defs>
<g id="addicon2">
<g clip-path="url(#add2)" clip-rule="nonzero">
<path style=" stroke:none;fill-rule:nonzero;fill:rgb(0%,70.588684%,62.348938%);fill-opacity:1;" d="M 237.890625 181.710938 L 155.859375 181.710938 L 155.859375 99.679688 C 155.859375 86.089844 144.84375 75.070312 131.25 75.070312 C 117.65625 75.070312 106.640625 86.089844 106.640625 99.679688 L 106.640625 181.710938 L 24.609375 181.710938 C 11.015625 181.710938 0 192.730469 0 206.320312 C 0 219.914062 11.015625 230.929688 24.609375 230.929688 L 106.640625 230.929688 L 106.640625 312.960938 C 106.640625 326.554688 117.65625 337.570312 131.25 337.570312 C 144.84375 337.570312 155.859375 326.554688 155.859375 312.960938 L 155.859375 230.929688 L 237.890625 230.929688 C 251.484375 230.929688 262.5 219.914062 262.5 206.320312 C 262.5 192.730469 251.484375 181.710938 237.890625 181.710938 Z M 237.890625 181.710938 "/>
</g>
</g>
</svg>
