<?xml version="1.0" encoding="UTF-8"?>
<svg xmlns="http://www.w3.org/2000/svg" xmlns:xlink="http://www.w3.org/1999/xlink" width="34px" viewBox="0 0 300 299.999988" version="1.2">
<defs>
<clipPath id="clip1">
  <path d="M 37.363281 0 L 262 0 L 262 300 L 37.363281 300 Z M 37.363281 0 "/>
</clipPath>
</defs>
<g id="surface1">
<g clip-path="url(#clip1)" clip-rule="nonzero">
<path style=" stroke:none;fill-rule:nonzero;fill:rgb(54.508972%,58.039856%,60.389709%);fill-opacity:1;" d="M 124.785156 27.273438 L 62.441406 27.273438 C 61.589844 27.3125 60.738281 27.394531 59.894531 27.515625 C 59.050781 27.640625 58.210938 27.804688 57.382812 28.007812 C 56.554688 28.214844 55.738281 28.460938 54.929688 28.746094 C 54.125 29.03125 53.335938 29.355469 52.5625 29.71875 C 51.789062 30.082031 51.035156 30.480469 50.300781 30.917969 C 49.566406 31.355469 48.855469 31.828125 48.167969 32.332031 C 47.480469 32.839844 46.816406 33.378906 46.179688 33.949219 C 45.546875 34.523438 44.9375 35.121094 44.363281 35.753906 C 43.785156 36.386719 43.238281 37.042969 42.726562 37.726562 C 42.214844 38.410156 41.734375 39.121094 41.292969 39.851562 C 40.847656 40.582031 40.441406 41.332031 40.070312 42.105469 C 39.699219 42.875 39.367188 43.664062 39.074219 44.46875 C 38.78125 45.269531 38.527344 46.085938 38.3125 46.917969 C 38.097656 47.746094 37.925781 48.582031 37.792969 49.429688 C 37.660156 50.273438 37.570312 51.125 37.519531 51.980469 C 37.472656 52.832031 37.464844 53.6875 37.5 54.542969 L 37.5 245.457031 C 37.464844 246.3125 37.472656 247.167969 37.519531 248.019531 C 37.570312 248.875 37.660156 249.726562 37.792969 250.570312 C 37.925781 251.417969 38.097656 252.253906 38.3125 253.082031 C 38.527344 253.914062 38.78125 254.726562 39.074219 255.53125 C 39.367188 256.335938 39.699219 257.125 40.070312 257.894531 C 40.441406 258.667969 40.847656 259.417969 41.292969 260.148438 C 41.734375 260.878906 42.214844 261.589844 42.726562 262.273438 C 43.238281 262.957031 43.785156 263.613281 44.363281 264.246094 C 44.9375 264.878906 45.546875 265.476562 46.179688 266.050781 C 46.816406 266.621094 47.480469 267.160156 48.167969 267.667969 C 48.855469 268.171875 49.566406 268.644531 50.300781 269.082031 C 51.035156 269.519531 51.789062 269.917969 52.5625 270.28125 C 53.335938 270.644531 54.125 270.96875 54.929688 271.253906 C 55.738281 271.539062 56.554688 271.785156 57.382812 271.992188 C 58.210938 272.195312 59.050781 272.359375 59.894531 272.484375 C 60.738281 272.605469 61.589844 272.6875 62.441406 272.726562 L 124.796875 272.726562 L 124.796875 300 L 149.730469 300 L 149.730469 0 L 124.785156 0 Z M 124.785156 231.816406 L 62.441406 231.816406 L 124.785156 150 Z M 237.015625 27.273438 L 174.671875 27.273438 L 174.671875 54.542969 L 237.027344 54.542969 L 237.027344 231.816406 L 174.671875 150 L 174.671875 272.726562 L 237.027344 272.726562 C 237.878906 272.6875 238.726562 272.605469 239.574219 272.484375 C 240.417969 272.359375 241.253906 272.195312 242.082031 271.988281 C 242.910156 271.785156 243.730469 271.539062 244.535156 271.253906 C 245.339844 270.964844 246.128906 270.640625 246.902344 270.277344 C 247.675781 269.914062 248.425781 269.515625 249.160156 269.078125 C 249.894531 268.640625 250.605469 268.171875 251.296875 267.664062 C 251.984375 267.15625 252.644531 266.617188 253.28125 266.046875 C 253.917969 265.476562 254.523438 264.875 255.101562 264.242188 C 255.675781 263.613281 256.222656 262.953125 256.734375 262.269531 C 257.246094 261.585938 257.726562 260.878906 258.167969 260.144531 C 258.613281 259.414062 259.019531 258.664062 259.390625 257.894531 C 259.761719 257.121094 260.089844 256.335938 260.386719 255.53125 C 260.679688 254.726562 260.933594 253.910156 261.144531 253.082031 C 261.359375 252.253906 261.53125 251.417969 261.664062 250.570312 C 261.796875 249.726562 261.886719 248.875 261.9375 248.019531 C 261.988281 247.167969 261.992188 246.3125 261.960938 245.457031 L 261.960938 54.542969 C 261.996094 53.6875 261.988281 52.832031 261.9375 51.980469 C 261.886719 51.125 261.796875 50.273438 261.664062 49.429688 C 261.53125 48.582031 261.359375 47.746094 261.144531 46.917969 C 260.933594 46.085938 260.679688 45.269531 260.382812 44.46875 C 260.089844 43.664062 259.757812 42.875 259.386719 42.105469 C 259.019531 41.332031 258.609375 40.582031 258.167969 39.851562 C 257.722656 39.121094 257.246094 38.410156 256.730469 37.726562 C 256.21875 37.042969 255.671875 36.386719 255.097656 35.753906 C 254.519531 35.121094 253.914062 34.523438 253.277344 33.949219 C 252.640625 33.378906 251.980469 32.839844 251.289062 32.332031 C 250.601562 31.828125 249.890625 31.355469 249.15625 30.917969 C 248.421875 30.480469 247.667969 30.082031 246.894531 29.71875 C 246.121094 29.355469 245.332031 29.03125 244.527344 28.746094 C 243.722656 28.460938 242.902344 28.214844 242.074219 28.007812 C 241.246094 27.804688 240.410156 27.640625 239.5625 27.515625 C 238.71875 27.394531 237.871094 27.3125 237.015625 27.273438 Z M 237.015625 27.273438 "/>
</g>
</g>
</svg>
