<?xml version="1.0" encoding="UTF-8"?>
<svg xmlns="http://www.w3.org/2000/svg" xmlns:xlink="http://www.w3.org/1999/xlink" width="34px" viewBox="0 0 300 299.999988" version="1.2">
<defs>
<clipPath id="clip1">
  <path d="M 40.683594 0 L 259.683594 0 L 259.683594 272.707031 L 40.683594 272.707031 Z M 40.683594 0 "/>
</clipPath>
</defs>
<g id="surface1">
<g clip-path="url(#clip1)" clip-rule="nonzero">
<path style=" stroke:none;fill-rule:nonzero;fill:rgb(54.508972%,58.039856%,60.389709%);fill-opacity:1;" d="M 211.3125 149.988281 L 150.371094 149.988281 L 150.371094 218.164062 L 211.3125 218.164062 Z M 199.117188 0.00390625 L 199.117188 27.277344 L 101.621094 27.277344 L 101.621094 0.00390625 L 77.246094 0.00390625 L 77.246094 27.277344 L 65.058594 27.277344 C 64.214844 27.328125 63.375 27.421875 62.539062 27.558594 C 61.699219 27.691406 60.875 27.867188 60.054688 28.085938 C 59.234375 28.300781 58.429688 28.554688 57.632812 28.851562 C 56.839844 29.144531 56.0625 29.476562 55.300781 29.847656 C 54.539062 30.21875 53.800781 30.625 53.078125 31.066406 C 52.359375 31.507812 51.660156 31.984375 50.984375 32.496094 C 50.3125 33.003906 49.664062 33.546875 49.042969 34.121094 C 48.421875 34.695312 47.832031 35.296875 47.269531 35.929688 C 46.710938 36.558594 46.179688 37.21875 45.683594 37.898438 C 45.1875 38.582031 44.726562 39.289062 44.296875 40.015625 C 43.871094 40.742188 43.480469 41.488281 43.128906 42.253906 C 42.773438 43.023438 42.460938 43.804688 42.183594 44.597656 C 41.90625 45.394531 41.667969 46.203125 41.472656 47.023438 C 41.277344 47.84375 41.121094 48.671875 41.003906 49.503906 C 40.890625 50.339844 40.816406 51.179688 40.785156 52.019531 C 40.75 52.863281 40.757812 53.703125 40.808594 54.546875 L 40.683594 245.433594 C 40.636719 246.273438 40.628906 247.117188 40.664062 247.960938 C 40.703125 248.804688 40.777344 249.644531 40.898438 250.480469 C 41.015625 251.316406 41.175781 252.144531 41.375 252.964844 C 41.574219 253.785156 41.816406 254.59375 42.09375 255.390625 C 42.375 256.1875 42.691406 256.96875 43.050781 257.738281 C 43.40625 258.503906 43.800781 259.25 44.230469 259.976562 C 44.660156 260.707031 45.125 261.410156 45.625 262.09375 C 46.125 262.777344 46.65625 263.433594 47.21875 264.0625 C 47.78125 264.695312 48.375 265.296875 49 265.871094 C 49.625 266.441406 50.273438 266.984375 50.949219 267.496094 C 51.625 268.003906 52.324219 268.480469 53.050781 268.921875 C 53.773438 269.363281 54.515625 269.769531 55.28125 270.140625 C 56.042969 270.507812 56.824219 270.839844 57.617188 271.132812 C 58.414062 271.429688 59.222656 271.683594 60.042969 271.898438 C 60.863281 272.113281 61.695312 272.285156 62.53125 272.421875 C 63.371094 272.554688 64.214844 272.648438 65.058594 272.703125 L 235.679688 272.703125 C 236.527344 272.648438 237.367188 272.550781 238.203125 272.414062 C 239.042969 272.277344 239.871094 272.101562 240.691406 271.882812 C 241.507812 271.667969 242.316406 271.410156 243.113281 271.117188 C 243.90625 270.820312 244.683594 270.488281 245.445312 270.117188 C 246.207031 269.75 246.949219 269.34375 247.671875 268.898438 C 248.394531 268.457031 249.09375 267.980469 249.769531 267.472656 C 250.445312 266.960938 251.09375 266.417969 251.714844 265.847656 C 252.339844 265.273438 252.933594 264.671875 253.496094 264.042969 C 254.058594 263.410156 254.589844 262.753906 255.089844 262.074219 C 255.589844 261.390625 256.054688 260.6875 256.484375 259.960938 C 256.914062 259.234375 257.308594 258.488281 257.664062 257.722656 C 258.023438 256.957031 258.339844 256.175781 258.621094 255.378906 C 258.902344 254.585938 259.144531 253.777344 259.34375 252.957031 C 259.546875 252.136719 259.707031 251.3125 259.828125 250.476562 C 259.949219 249.640625 260.027344 248.800781 260.066406 247.960938 C 260.105469 247.117188 260.101562 246.273438 260.058594 245.433594 L 260.058594 54.546875 C 260.101562 53.703125 260.105469 52.859375 260.066406 52.015625 C 260.027344 51.175781 259.949219 50.335938 259.828125 49.5 C 259.707031 48.667969 259.546875 47.839844 259.34375 47.019531 C 259.144531 46.199219 258.902344 45.394531 258.621094 44.597656 C 258.339844 43.800781 258.023438 43.019531 257.664062 42.253906 C 257.308594 41.488281 256.914062 40.742188 256.484375 40.015625 C 256.054688 39.289062 255.589844 38.585938 255.089844 37.902344 C 254.589844 37.222656 254.058594 36.566406 253.496094 35.933594 C 252.933594 35.304688 252.339844 34.703125 251.714844 34.128906 C 251.09375 33.558594 250.445312 33.015625 249.769531 32.507812 C 249.09375 31.996094 248.394531 31.519531 247.671875 31.078125 C 246.949219 30.636719 246.207031 30.230469 245.445312 29.859375 C 244.683594 29.488281 243.90625 29.15625 243.113281 28.859375 C 242.316406 28.566406 241.507812 28.308594 240.691406 28.09375 C 239.871094 27.875 239.042969 27.699219 238.203125 27.5625 C 237.367188 27.425781 236.527344 27.332031 235.679688 27.277344 L 223.496094 27.277344 L 223.496094 0.00390625 Z M 235.679688 245.433594 L 65.058594 245.433594 L 65.058594 95.449219 L 235.679688 95.449219 Z M 235.679688 245.433594 "/>
</g>
</g>
</svg>
