<?xml version="1.0" encoding="UTF-8"?>
<svg xmlns="http://www.w3.org/2000/svg" xmlns:xlink="http://www.w3.org/1999/xlink" width="34px" viewBox="0 0 300 299.999988" version="1.2">
<defs>
<clipPath id="market1">
  <path d="M 45 27.59375 L 254.859375 27.59375 L 254.859375 271.789062 L 45 271.789062 Z M 45 27.59375 "/>
</clipPath>
<clipPath id="market2">
  <path d="M 108 65.265625 L 192.832031 65.265625 L 192.832031 159 L 108 159 Z M 108 65.265625 "/>
</clipPath>
<clipPath id="market3">
  <path d="M 107.15625 141 L 192 141 L 192 234.730469 L 107.15625 234.730469 Z M 107.15625 141 "/>
</clipPath>
</defs>
<g id="marketicon">
<g clip-path="url(#market1)" clip-rule="nonzero">
<path style="fill:none;stroke-width:3;stroke-linecap:round;stroke-linejoin:round;stroke:rgb(54.508972%,58.039856%,60.389709%);stroke-opacity:1;stroke-miterlimit:4;" d="M 3.999915 1.500062 L 20.00015 1.500062 C 20.081985 1.500062 20.163372 1.504094 20.245207 1.512156 C 20.326594 1.520218 20.407535 1.531863 20.487581 1.547988 C 20.568074 1.564112 20.647225 1.58382 20.72593 1.607558 C 20.804187 1.631297 20.881102 1.659067 20.956676 1.69042 C 21.03225 1.721772 21.106483 1.756709 21.178479 1.795228 C 21.250923 1.833747 21.320684 1.87585 21.389103 1.921535 C 21.457075 1.966773 21.522811 2.015594 21.585864 2.06755 C 21.649364 2.119507 21.709734 2.17415 21.767868 2.232377 C 21.825554 2.290156 21.880558 2.350623 21.932431 2.414224 C 21.984305 2.477378 22.033048 2.542771 22.07866 2.610852 C 22.124273 2.678933 22.166308 2.749253 22.204766 2.821364 C 22.243224 2.893924 22.278552 2.967827 22.309854 3.043074 C 22.341157 3.118769 22.368435 3.195808 22.392136 3.27419 C 22.416284 3.352573 22.43596 3.431851 22.452059 3.512473 C 22.468157 3.592647 22.479784 3.673268 22.487834 3.754786 C 22.495883 3.836304 22.499907 3.918269 22.499907 3.999787 L 22.499907 23.999821 C 22.499907 24.081786 22.495883 24.163752 22.487834 24.244821 C 22.479784 24.326339 22.468157 24.407409 22.452059 24.487583 C 22.43596 24.568204 22.416284 24.647482 22.392136 24.725865 C 22.368435 24.804247 22.341157 24.880838 22.309854 24.956533 C 22.278552 25.032228 22.243224 25.106131 22.204766 25.178691 C 22.166308 25.250802 22.124273 25.320675 22.07866 25.388755 C 22.033048 25.456836 21.984305 25.522677 21.932431 25.585831 C 21.880558 25.649433 21.825554 25.709899 21.767868 25.767678 C 21.709734 25.825457 21.649364 25.880548 21.585864 25.932505 C 21.522811 25.984461 21.457075 26.033282 21.389103 26.07852 C 21.320684 26.124205 21.250923 26.166308 21.178479 26.204827 C 21.106483 26.243347 21.03225 26.278283 20.956676 26.309636 C 20.881102 26.340989 20.804187 26.368758 20.72593 26.392497 C 20.647225 26.416236 20.568074 26.435943 20.487581 26.452068 C 20.407535 26.467744 20.326594 26.479837 20.245207 26.487899 C 20.163372 26.495962 20.081985 26.499993 20.00015 26.499993 L 3.999915 26.499993 C 3.918081 26.499993 3.836246 26.495962 3.754859 26.487899 C 3.673471 26.479837 3.592531 26.467744 3.512485 26.452068 C 3.431992 26.435943 3.352841 26.416236 3.274136 26.392497 C 3.195879 26.368758 3.118963 26.340989 3.043389 26.309636 C 2.967815 26.278283 2.893583 26.243347 2.821586 26.204827 C 2.749143 26.166308 2.678935 26.124205 2.610963 26.07852 C 2.542991 26.033282 2.477255 25.984461 2.414202 25.932505 C 2.350702 25.880548 2.290332 25.825457 2.232198 25.767678 C 2.174511 25.709899 2.119508 25.649433 2.067634 25.585831 C 2.015314 25.522677 1.967018 25.456836 1.921405 25.388755 C 1.875793 25.320675 1.833757 25.250802 1.7953 25.178691 C 1.756395 25.106131 1.721514 25.032228 1.690211 24.956533 C 1.658909 24.880838 1.63163 24.804247 1.607482 24.725865 C 1.583782 24.647482 1.564106 24.568204 1.548007 24.487583 C 1.531908 24.407409 1.520282 24.326339 1.512232 24.244821 C 1.504183 24.163752 1.500158 24.081786 1.500158 23.999821 L 1.500158 3.999787 C 1.500158 3.918269 1.504183 3.836304 1.512232 3.754786 C 1.520282 3.673268 1.531908 3.592647 1.548007 3.512473 C 1.564106 3.431851 1.583782 3.352573 1.607482 3.27419 C 1.63163 3.195808 1.658909 3.118769 1.690211 3.043074 C 1.721514 2.967827 1.756395 2.893924 1.7953 2.821364 C 1.833757 2.749253 1.875793 2.678933 1.921405 2.610852 C 1.967018 2.542771 2.015314 2.477378 2.067634 2.414224 C 2.119508 2.350623 2.174511 2.290156 2.232198 2.232377 C 2.290332 2.17415 2.350702 2.119507 2.414202 2.06755 C 2.477255 2.015594 2.542991 1.966773 2.610963 1.921535 C 2.678935 1.87585 2.749143 1.833747 2.821586 1.795228 C 2.893583 1.756709 2.967815 1.721772 3.043389 1.69042 C 3.118963 1.659067 3.195879 1.631297 3.274136 1.607558 C 3.352841 1.58382 3.431992 1.564112 3.512485 1.547988 C 3.592531 1.531863 3.673471 1.520218 3.754859 1.512156 C 3.836246 1.504094 3.918081 1.500062 3.999915 1.500062 Z M 3.999915 1.500062 " transform="matrix(8.735223,0,0,8.721274,45.083282,27.593325)"/>
</g>
<g clip-path="url(#market2)" clip-rule="nonzero">
<path style=" stroke:none;fill-rule:nonzero;fill:rgb(54.508972%,58.039856%,59.999084%);fill-opacity:1;" d="M 155.621094 158.964844 L 144.539062 158.964844 C 140.683594 158.964844 137.542969 155.839844 137.542969 152 L 137.542969 110.117188 L 127.871094 119.742188 C 126.546875 121.054688 124.789062 121.78125 122.921875 121.78125 C 121.054688 121.78125 119.296875 121.054688 117.976562 119.742188 L 110.136719 111.945312 C 107.410156 109.230469 107.410156 104.8125 110.136719 102.097656 L 137.257812 75.113281 C 137.269531 75.101562 137.285156 75.089844 137.296875 75.074219 L 145.132812 67.277344 C 146.351562 66.066406 147.976562 65.351562 149.710938 65.257812 C 149.933594 65.234375 150.171875 65.230469 150.445312 65.257812 C 152.191406 65.351562 153.8125 66.066406 155.03125 67.277344 L 190.027344 102.097656 C 192.753906 104.8125 192.753906 109.226562 190.027344 111.945312 L 182.191406 119.742188 C 180.867188 121.058594 179.109375 121.777344 177.242188 121.78125 C 175.371094 121.78125 173.613281 121.054688 172.292969 119.742188 L 162.621094 110.117188 L 162.621094 152 C 162.621094 155.839844 159.480469 158.964844 155.621094 158.964844 Z M 155.621094 158.964844 "/>
</g>
<path style=" stroke:none;fill-rule:nonzero;fill:rgb(54.508972%,58.039856%,59.999084%);fill-opacity:1;" d="M 61.605469 135.449219 L 238.464844 135.449219 L 238.464844 164.609375 L 61.605469 164.609375 Z M 61.605469 135.449219 "/>
<g clip-path="url(#market3)" clip-rule="nonzero">
<path style=" stroke:none;fill-rule:nonzero;fill:rgb(54.508972%,58.039856%,59.999084%);fill-opacity:1;" d="M 144.367188 141.035156 L 155.449219 141.035156 C 159.308594 141.035156 162.445312 144.160156 162.445312 147.996094 L 162.445312 189.878906 L 172.117188 180.257812 C 173.441406 178.941406 175.199219 178.21875 177.066406 178.21875 C 178.933594 178.21875 180.691406 178.941406 182.015625 180.257812 L 189.851562 188.054688 C 192.582031 190.769531 192.578125 195.1875 189.851562 197.898438 L 162.730469 224.882812 C 162.71875 224.898438 162.707031 224.910156 162.691406 224.925781 L 154.855469 232.722656 C 153.636719 233.933594 152.015625 234.644531 150.277344 234.738281 C 150.054688 234.765625 149.820312 234.765625 149.542969 234.738281 C 147.796875 234.648438 146.175781 233.933594 144.957031 232.722656 L 109.960938 197.902344 C 107.234375 195.1875 107.234375 190.769531 109.960938 188.054688 L 117.796875 180.257812 C 119.121094 178.941406 120.878906 178.21875 122.746094 178.21875 C 124.617188 178.21875 126.375 178.941406 127.695312 180.257812 L 137.367188 189.878906 L 137.367188 147.996094 C 137.367188 144.160156 140.507812 141.035156 144.367188 141.035156 Z M 144.367188 141.035156 "/>
</g>
</g>
</svg>
