<?xml version="1.0" encoding="UTF-8"?>
<svg xmlns="http://www.w3.org/2000/svg" xmlns:xlink="http://www.w3.org/1999/xlink" width="40px" viewBox="0 0 300 299.999988" version="1.2">
<defs>
<clipPath id="plus1">
  <path d="M 44.363281 44.363281 L 255.863281 44.363281 L 255.863281 255.863281 L 44.363281 255.863281 Z M 44.363281 44.363281 "/>
</clipPath>
</defs>
<g id="plusicon">
<g clip-path="url(#plus1)" clip-rule="nonzero">
<path style=" stroke:none;fill-rule:nonzero;fill:rgb(0%,70.588684%,62.348938%);fill-opacity:1;" d="M 240.972656 127.542969 L 172.917969 127.542969 L 172.917969 59.488281 C 172.917969 58.492188 172.820312 57.511719 172.625 56.535156 C 172.433594 55.5625 172.144531 54.617188 171.765625 53.699219 C 171.386719 52.78125 170.917969 51.910156 170.367188 51.085938 C 169.816406 50.257812 169.1875 49.496094 168.488281 48.792969 C 167.785156 48.089844 167.019531 47.464844 166.195312 46.910156 C 165.367188 46.359375 164.496094 45.894531 163.578125 45.515625 C 162.664062 45.132812 161.714844 44.847656 160.742188 44.652344 C 159.769531 44.460938 158.785156 44.363281 157.792969 44.363281 L 142.667969 44.363281 C 141.675781 44.363281 140.691406 44.460938 139.71875 44.652344 C 138.742188 44.847656 137.796875 45.132812 136.878906 45.515625 C 135.964844 45.894531 135.089844 46.359375 134.265625 46.910156 C 133.441406 47.464844 132.675781 48.089844 131.972656 48.792969 C 131.273438 49.496094 130.644531 50.257812 130.09375 51.085938 C 129.542969 51.910156 129.074219 52.78125 128.695312 53.699219 C 128.316406 54.617188 128.027344 55.5625 127.835938 56.535156 C 127.640625 57.511719 127.542969 58.492188 127.542969 59.488281 L 127.542969 127.542969 L 59.488281 127.542969 C 58.492188 127.542969 57.511719 127.640625 56.535156 127.835938 C 55.5625 128.027344 54.617188 128.316406 53.699219 128.695312 C 52.78125 129.074219 51.910156 129.542969 51.085938 130.09375 C 50.257812 130.644531 49.496094 131.273438 48.792969 131.972656 C 48.089844 132.675781 47.464844 133.441406 46.910156 134.265625 C 46.359375 135.089844 45.894531 135.964844 45.515625 136.878906 C 45.132812 137.796875 44.847656 138.742188 44.652344 139.71875 C 44.460938 140.691406 44.363281 141.675781 44.363281 142.667969 L 44.363281 157.792969 C 44.363281 158.785156 44.460938 159.769531 44.652344 160.742188 C 44.847656 161.714844 45.132812 162.664062 45.515625 163.578125 C 45.894531 164.496094 46.359375 165.367188 46.910156 166.195312 C 47.464844 167.019531 48.089844 167.785156 48.792969 168.488281 C 49.496094 169.1875 50.257812 169.816406 51.085938 170.367188 C 51.910156 170.917969 52.78125 171.386719 53.699219 171.765625 C 54.617188 172.144531 55.5625 172.433594 56.535156 172.625 C 57.511719 172.820312 58.492188 172.917969 59.488281 172.917969 L 127.542969 172.917969 L 127.542969 240.972656 C 127.542969 241.964844 127.640625 242.949219 127.835938 243.925781 C 128.027344 244.898438 128.316406 245.84375 128.695312 246.761719 C 129.074219 247.679688 129.542969 248.550781 130.09375 249.375 C 130.644531 250.203125 131.273438 250.964844 131.972656 251.667969 C 132.675781 252.371094 133.441406 252.996094 134.265625 253.546875 C 135.089844 254.101562 135.964844 254.566406 136.878906 254.945312 C 137.796875 255.328125 138.742188 255.613281 139.71875 255.808594 C 140.691406 256 141.675781 256.097656 142.667969 256.097656 L 157.792969 256.097656 C 158.785156 256.097656 159.769531 256 160.742188 255.808594 C 161.714844 255.613281 162.664062 255.328125 163.578125 254.945312 C 164.496094 254.566406 165.367188 254.101562 166.195312 253.546875 C 167.019531 252.996094 167.785156 252.371094 168.488281 251.667969 C 169.1875 250.964844 169.816406 250.203125 170.367188 249.375 C 170.917969 248.550781 171.386719 247.679688 171.765625 246.761719 C 172.144531 245.84375 172.433594 244.898438 172.625 243.925781 C 172.820312 242.949219 172.917969 241.964844 172.917969 240.972656 L 172.917969 172.917969 L 240.972656 172.917969 C 241.96875 172.917969 242.949219 172.820312 243.925781 172.625 C 244.898438 172.433594 245.84375 172.144531 246.761719 171.765625 C 247.679688 171.386719 248.550781 170.917969 249.375 170.367188 C 250.203125 169.816406 250.964844 169.1875 251.667969 168.488281 C 252.371094 167.785156 252.996094 167.019531 253.546875 166.195312 C 254.101562 165.367188 254.566406 164.496094 254.945312 163.578125 C 255.328125 162.664062 255.613281 161.714844 255.808594 160.742188 C 256 159.769531 256.097656 158.785156 256.097656 157.792969 L 256.097656 142.667969 C 256.097656 141.675781 256 140.691406 255.808594 139.71875 C 255.613281 138.742188 255.328125 137.796875 254.945312 136.878906 C 254.566406 135.964844 254.101562 135.089844 253.546875 134.265625 C 252.996094 133.441406 252.371094 132.675781 251.667969 131.972656 C 250.964844 131.273438 250.203125 130.644531 249.375 130.09375 C 248.550781 129.542969 247.679688 129.074219 246.761719 128.695312 C 245.84375 128.316406 244.898438 128.027344 243.925781 127.835938 C 242.949219 127.640625 241.96875 127.542969 240.972656 127.542969 Z M 240.972656 127.542969 "/>
</g>
</g>
</svg>
