<?xml version="1.0" encoding="UTF-8"?>
<svg xmlns="http://www.w3.org/2000/svg" xmlns:xlink="http://www.w3.org/1999/xlink" width="60px" viewBox="0 0 300 449.999984" version="1.2">
<defs>
<clipPath id="port1">
  <path d="M 206 307 L 277.652344 307 L 277.652344 356 L 206 356 Z M 206 307 "/>
</clipPath>
<clipPath id="port2">
  <path d="M 206 294 L 277.652344 294 L 277.652344 343 L 206 343 Z M 206 294 "/>
</clipPath>
<clipPath id="port3">
  <path d="M 206 288 L 277.652344 288 L 277.652344 336 L 206 336 Z M 206 288 "/>
</clipPath>
<clipPath id="port4">
  <path d="M 206 275 L 277.652344 275 L 277.652344 323 L 206 323 Z M 206 275 "/>
</clipPath>
<clipPath id="port5">
  <path d="M 152 335 L 225 335 L 225 383.042969 L 152 383.042969 Z M 152 335 "/>
</clipPath>
<clipPath id="port6">
  <path d="M 22.652344 127 L 99 127 L 99 226 L 22.652344 226 Z M 22.652344 127 "/>
</clipPath>
<clipPath id="port7">
  <path d="M 149 67.292969 L 211 67.292969 L 211 101 L 149 101 Z M 149 67.292969 "/>
</clipPath>
<clipPath id="port8">
  <path d="M 22.652344 127 L 99 127 L 99 226 L 22.652344 226 Z M 22.652344 127 "/>
</clipPath>
<clipPath id="port9">
  <path d="M 149 67.292969 L 211 67.292969 L 211 101 L 149 101 Z M 149 67.292969 "/>
</clipPath>
</defs>
<g id="portfolioicon">
<path style=" stroke:none;fill-rule:nonzero;fill:rgb(29.019165%,78.819275%,68.238831%);fill-opacity:1;" d="M 48.320312 250.796875 L 189.824219 169.226562 L 263.761719 211.285156 L 120.984375 294.128906 Z M 48.320312 250.796875 "/>
<path style=" stroke:none;fill-rule:nonzero;fill:rgb(15.689087%,65.879822%,54.899597%);fill-opacity:1;" d="M 48.320312 250.796875 L 48.320312 315.792969 L 120.984375 357.851562 L 120.984375 294.128906 Z M 48.320312 250.796875 "/>
<path style=" stroke:none;fill-rule:nonzero;fill:rgb(16.859436%,47.839355%,41.178894%);fill-opacity:1;" d="M 120.984375 357.851562 L 263.761719 272.460938 L 263.761719 211.285156 L 120.984375 294.128906 Z M 120.984375 357.851562 "/>
<path style=" stroke:none;fill-rule:nonzero;fill:rgb(100%,100%,100%);fill-opacity:1;" d="M 73.816406 249.519531 L 191.097656 181.972656 L 242.089844 210.011719 L 124.808594 278.835938 Z M 73.816406 249.519531 "/>
<path style=" stroke:none;fill-rule:nonzero;fill:rgb(29.019165%,78.819275%,68.238831%);fill-opacity:1;" d="M 186.664062 230.402344 C 186.664062 240.257812 173.957031 248.246094 158.285156 248.246094 C 142.613281 248.246094 129.90625 240.257812 129.90625 230.402344 C 129.90625 220.550781 142.613281 212.558594 158.285156 212.558594 C 173.957031 212.558594 186.664062 220.550781 186.664062 230.402344 Z M 186.664062 230.402344 "/>
<path style=" stroke:none;fill-rule:nonzero;fill:rgb(29.019165%,78.819275%,68.238831%);fill-opacity:1;" d="M 48.320312 263.539062 L 120.984375 308.148438 L 120.984375 320.894531 L 48.320312 276.285156 Z M 48.320312 263.539062 "/>
<path style=" stroke:none;fill-rule:nonzero;fill:rgb(29.019165%,78.819275%,68.238831%);fill-opacity:1;" d="M 48.320312 289.03125 L 120.984375 333.636719 L 120.984375 346.382812 L 48.320312 301.777344 Z M 48.320312 289.03125 "/>
<path style=" stroke:none;fill-rule:nonzero;fill:rgb(15.689087%,65.879822%,54.899597%);fill-opacity:1;" d="M 120.984375 308.148438 L 263.761719 225.304688 L 263.761719 238.050781 L 120.984375 320.894531 Z M 120.984375 308.148438 "/>
<path style=" stroke:none;fill-rule:nonzero;fill:rgb(15.689087%,65.879822%,54.899597%);fill-opacity:1;" d="M 120.984375 333.636719 L 263.761719 250.796875 L 263.761719 263.539062 L 120.984375 346.382812 Z M 120.984375 333.636719 "/>
<g clip-path="url(#port1)" clip-rule="nonzero">
<path style=" stroke:none;fill-rule:nonzero;fill:rgb(83.139038%,44.709778%,3.919983%);fill-opacity:1;" d="M 272.019531 318.34375 C 265.652344 311.972656 254.632812 307.511719 242.089844 307.511719 C 229.550781 307.511719 218.527344 311.972656 212.160156 318.34375 L 206.394531 318.34375 L 206.394531 331.511719 C 206.394531 344.652344 222.375 355.304688 242.089844 355.304688 C 261.804688 355.304688 277.785156 344.652344 277.785156 331.511719 L 277.785156 318.34375 Z M 272.019531 318.34375 "/>
</g>
<g clip-path="url(#port2)" clip-rule="nonzero">
<path style=" stroke:none;fill-rule:nonzero;fill:rgb(100%,92.939758%,19.219971%);fill-opacity:1;" d="M 277.785156 318.554688 C 277.785156 319.335938 277.730469 320.113281 277.613281 320.886719 C 277.5 321.664062 277.328125 322.433594 277.101562 323.195312 C 276.871094 323.960938 276.589844 324.714844 276.25 325.460938 C 275.910156 326.207031 275.515625 326.941406 275.070312 327.660156 C 274.621094 328.378906 274.121094 329.082031 273.570312 329.769531 C 273.019531 330.457031 272.417969 331.125 271.769531 331.773438 C 271.121094 332.421875 270.425781 333.046875 269.683594 333.648438 C 268.941406 334.25 268.15625 334.828125 267.332031 335.378906 C 266.503906 335.929688 265.640625 336.453125 264.734375 336.949219 C 263.832031 337.441406 262.894531 337.90625 261.921875 338.339844 C 260.949219 338.769531 259.949219 339.171875 258.917969 339.539062 C 257.886719 339.90625 256.832031 340.238281 255.75 340.535156 C 254.671875 340.835938 253.570312 341.097656 252.453125 341.324219 C 251.332031 341.550781 250.199219 341.738281 249.054688 341.890625 C 247.90625 342.042969 246.753906 342.15625 245.589844 342.234375 C 244.425781 342.308594 243.257812 342.347656 242.089844 342.347656 C 240.921875 342.347656 239.753906 342.308594 238.589844 342.234375 C 237.429688 342.15625 236.273438 342.042969 235.125 341.890625 C 233.980469 341.738281 232.847656 341.550781 231.730469 341.324219 C 230.609375 341.097656 229.511719 340.835938 228.429688 340.535156 C 227.351562 340.238281 226.292969 339.90625 225.265625 339.539062 C 224.234375 339.171875 223.230469 338.769531 222.257812 338.339844 C 221.289062 337.90625 220.347656 337.441406 219.445312 336.949219 C 218.542969 336.453125 217.675781 335.929688 216.851562 335.378906 C 216.023438 334.828125 215.238281 334.25 214.496094 333.648438 C 213.757812 333.046875 213.058594 332.421875 212.410156 331.773438 C 211.761719 331.125 211.160156 330.457031 210.609375 329.769531 C 210.058594 329.082031 209.558594 328.378906 209.113281 327.660156 C 208.664062 326.941406 208.273438 326.207031 207.933594 325.460938 C 207.59375 324.714844 207.308594 323.960938 207.082031 323.195312 C 206.851562 322.433594 206.679688 321.664062 206.566406 320.886719 C 206.453125 320.113281 206.394531 319.335938 206.394531 318.554688 C 206.394531 317.777344 206.453125 317 206.566406 316.222656 C 206.679688 315.449219 206.851562 314.679688 207.082031 313.914062 C 207.308594 313.148438 207.59375 312.394531 207.933594 311.648438 C 208.273438 310.902344 208.664062 310.171875 209.113281 309.449219 C 209.558594 308.730469 210.058594 308.027344 210.609375 307.339844 C 211.160156 306.652344 211.761719 305.984375 212.410156 305.335938 C 213.058594 304.6875 213.757812 304.0625 214.496094 303.460938 C 215.238281 302.859375 216.023438 302.28125 216.851562 301.730469 C 217.675781 301.179688 218.542969 300.65625 219.445312 300.164062 C 220.347656 299.667969 221.289062 299.207031 222.257812 298.773438 C 223.230469 298.339844 224.234375 297.941406 225.265625 297.574219 C 226.292969 297.207031 227.351562 296.871094 228.429688 296.574219 C 229.511719 296.277344 230.609375 296.015625 231.730469 295.789062 C 232.847656 295.5625 233.980469 295.371094 235.125 295.21875 C 236.273438 295.066406 237.429688 294.953125 238.589844 294.878906 C 239.753906 294.800781 240.921875 294.761719 242.089844 294.761719 C 243.257812 294.761719 244.425781 294.800781 245.589844 294.878906 C 246.753906 294.953125 247.90625 295.066406 249.054688 295.21875 C 250.199219 295.371094 251.332031 295.5625 252.453125 295.789062 C 253.570312 296.015625 254.671875 296.277344 255.75 296.574219 C 256.832031 296.871094 257.886719 297.207031 258.917969 297.574219 C 259.949219 297.941406 260.949219 298.339844 261.921875 298.773438 C 262.894531 299.207031 263.832031 299.667969 264.734375 300.164062 C 265.640625 300.65625 266.503906 301.179688 267.332031 301.730469 C 268.15625 302.28125 268.941406 302.859375 269.683594 303.460938 C 270.425781 304.0625 271.121094 304.6875 271.769531 305.335938 C 272.417969 305.984375 273.019531 306.652344 273.570312 307.339844 C 274.121094 308.027344 274.621094 308.730469 275.070312 309.449219 C 275.515625 310.171875 275.910156 310.902344 276.25 311.648438 C 276.589844 312.394531 276.871094 313.148438 277.101562 313.914062 C 277.328125 314.679688 277.5 315.449219 277.613281 316.222656 C 277.730469 317 277.785156 317.777344 277.785156 318.554688 Z M 277.785156 318.554688 "/>
</g>
<path style=" stroke:none;fill-rule:nonzero;fill:rgb(92.939758%,67.449951%,0.389099%);fill-opacity:1;" d="M 270.800781 317.070312 C 270.800781 317.65625 270.757812 318.238281 270.664062 318.820312 C 270.574219 319.402344 270.4375 319.976562 270.257812 320.550781 C 270.074219 321.125 269.851562 321.691406 269.578125 322.25 C 269.308594 322.808594 268.996094 323.359375 268.640625 323.898438 C 268.285156 324.4375 267.890625 324.964844 267.449219 325.480469 C 267.011719 325.996094 266.535156 326.496094 266.019531 326.984375 C 265.503906 327.46875 264.949219 327.9375 264.359375 328.390625 C 263.769531 328.839844 263.148438 329.273438 262.488281 329.6875 C 261.832031 330.101562 261.144531 330.492188 260.425781 330.863281 C 259.707031 331.234375 258.960938 331.582031 258.191406 331.90625 C 257.417969 332.230469 256.621094 332.53125 255.800781 332.804688 C 254.980469 333.082031 254.140625 333.332031 253.285156 333.554688 C 252.425781 333.777344 251.550781 333.972656 250.660156 334.144531 C 249.773438 334.3125 248.871094 334.457031 247.960938 334.570312 C 247.046875 334.683594 246.128906 334.769531 245.203125 334.828125 C 244.28125 334.882812 243.351562 334.914062 242.421875 334.914062 C 241.492188 334.914062 240.566406 334.882812 239.640625 334.828125 C 238.71875 334.769531 237.796875 334.683594 236.886719 334.570312 C 235.976562 334.457031 235.074219 334.3125 234.1875 334.144531 C 233.296875 333.972656 232.421875 333.777344 231.5625 333.554688 C 230.703125 333.332031 229.867188 333.082031 229.046875 332.804688 C 228.226562 332.53125 227.429688 332.230469 226.65625 331.90625 C 225.882812 331.582031 225.140625 331.234375 224.421875 330.863281 C 223.703125 330.492188 223.015625 330.101562 222.355469 329.6875 C 221.699219 329.273438 221.078125 328.839844 220.488281 328.390625 C 219.898438 327.9375 219.34375 327.46875 218.828125 326.984375 C 218.3125 326.496094 217.832031 325.996094 217.394531 325.480469 C 216.957031 324.964844 216.5625 324.4375 216.207031 323.898438 C 215.847656 323.359375 215.535156 322.808594 215.265625 322.25 C 214.996094 321.691406 214.773438 321.125 214.589844 320.550781 C 214.410156 319.976562 214.273438 319.402344 214.179688 318.820312 C 214.089844 318.238281 214.046875 317.65625 214.046875 317.070312 C 214.046875 316.484375 214.089844 315.902344 214.179688 315.320312 C 214.273438 314.738281 214.410156 314.164062 214.589844 313.589844 C 214.773438 313.015625 214.996094 312.449219 215.265625 311.890625 C 215.535156 311.332031 215.847656 310.78125 216.207031 310.242188 C 216.5625 309.703125 216.957031 309.175781 217.394531 308.660156 C 217.832031 308.144531 218.3125 307.644531 218.828125 307.15625 C 219.34375 306.671875 219.898438 306.203125 220.488281 305.75 C 221.078125 305.300781 221.699219 304.867188 222.355469 304.453125 C 223.015625 304.039062 223.703125 303.648438 224.421875 303.277344 C 225.140625 302.90625 225.882812 302.558594 226.65625 302.234375 C 227.429688 301.910156 228.226562 301.609375 229.046875 301.335938 C 229.867188 301.058594 230.703125 300.808594 231.5625 300.585938 C 232.421875 300.363281 233.296875 300.164062 234.1875 299.996094 C 235.074219 299.828125 235.976562 299.683594 236.886719 299.570312 C 237.796875 299.457031 238.71875 299.371094 239.640625 299.3125 C 240.566406 299.257812 241.492188 299.226562 242.421875 299.226562 C 243.351562 299.226562 244.28125 299.257812 245.203125 299.3125 C 246.128906 299.371094 247.046875 299.457031 247.960938 299.570312 C 248.871094 299.683594 249.773438 299.828125 250.660156 299.996094 C 251.550781 300.164062 252.425781 300.363281 253.285156 300.585938 C 254.140625 300.808594 254.980469 301.058594 255.800781 301.335938 C 256.621094 301.609375 257.417969 301.910156 258.191406 302.234375 C 258.960938 302.558594 259.707031 302.90625 260.425781 303.277344 C 261.144531 303.648438 261.832031 304.039062 262.488281 304.453125 C 263.148438 304.867188 263.769531 305.300781 264.359375 305.75 C 264.949219 306.203125 265.503906 306.671875 266.019531 307.15625 C 266.535156 307.644531 267.011719 308.144531 267.449219 308.660156 C 267.890625 309.175781 268.285156 309.703125 268.640625 310.242188 C 268.996094 310.78125 269.308594 311.332031 269.578125 311.890625 C 269.851562 312.449219 270.074219 313.015625 270.257812 313.589844 C 270.4375 314.164062 270.574219 314.738281 270.664062 315.320312 C 270.757812 315.902344 270.800781 316.484375 270.800781 317.070312 Z M 270.800781 317.070312 "/>
<g clip-path="url(#port3)" clip-rule="nonzero">
<path style=" stroke:none;fill-rule:nonzero;fill:rgb(83.139038%,44.709778%,3.919983%);fill-opacity:1;" d="M 272.019531 299.226562 C 265.652344 292.851562 254.632812 288.394531 242.089844 288.394531 C 229.550781 288.394531 218.527344 292.855469 212.160156 299.226562 L 206.394531 299.226562 L 206.394531 311.757812 C 206.394531 324.898438 222.375 335.550781 242.089844 335.550781 C 261.804688 335.550781 277.785156 324.898438 277.785156 311.757812 L 277.785156 299.226562 Z M 272.019531 299.226562 "/>
</g>
<g clip-path="url(#port4)" clip-rule="nonzero">
<path style=" stroke:none;fill-rule:nonzero;fill:rgb(100%,92.939758%,19.219971%);fill-opacity:1;" d="M 277.785156 298.800781 C 277.785156 299.582031 277.730469 300.359375 277.613281 301.132812 C 277.5 301.910156 277.328125 302.679688 277.101562 303.445312 C 276.871094 304.207031 276.589844 304.960938 276.25 305.707031 C 275.910156 306.453125 275.515625 307.1875 275.070312 307.90625 C 274.621094 308.625 274.121094 309.328125 273.570312 310.015625 C 273.019531 310.703125 272.417969 311.371094 271.769531 312.019531 C 271.121094 312.667969 270.425781 313.292969 269.683594 313.894531 C 268.941406 314.496094 268.15625 315.074219 267.332031 315.625 C 266.503906 316.175781 265.640625 316.699219 264.734375 317.191406 C 263.832031 317.6875 262.894531 318.152344 261.921875 318.582031 C 260.949219 319.015625 259.949219 319.417969 258.917969 319.785156 C 257.886719 320.152344 256.832031 320.484375 255.75 320.78125 C 254.671875 321.078125 253.570312 321.34375 252.453125 321.566406 C 251.332031 321.792969 250.199219 321.984375 249.054688 322.136719 C 247.90625 322.289062 246.753906 322.402344 245.589844 322.476562 C 244.425781 322.554688 243.257812 322.59375 242.089844 322.59375 C 240.921875 322.59375 239.753906 322.554688 238.589844 322.476562 C 237.429688 322.402344 236.273438 322.289062 235.125 322.136719 C 233.980469 321.984375 232.847656 321.792969 231.730469 321.566406 C 230.609375 321.34375 229.511719 321.078125 228.429688 320.78125 C 227.351562 320.484375 226.292969 320.152344 225.265625 319.785156 C 224.234375 319.417969 223.230469 319.015625 222.257812 318.582031 C 221.289062 318.152344 220.347656 317.6875 219.445312 317.191406 C 218.542969 316.699219 217.675781 316.175781 216.851562 315.625 C 216.023438 315.074219 215.238281 314.496094 214.496094 313.894531 C 213.757812 313.292969 213.058594 312.667969 212.410156 312.019531 C 211.761719 311.371094 211.160156 310.703125 210.609375 310.015625 C 210.058594 309.328125 209.558594 308.625 209.113281 307.90625 C 208.664062 307.1875 208.273438 306.453125 207.933594 305.707031 C 207.59375 304.960938 207.308594 304.207031 207.082031 303.445312 C 206.851562 302.679688 206.679688 301.910156 206.566406 301.132812 C 206.453125 300.359375 206.394531 299.582031 206.394531 298.800781 C 206.394531 298.023438 206.453125 297.246094 206.566406 296.46875 C 206.679688 295.695312 206.851562 294.925781 207.082031 294.160156 C 207.308594 293.398438 207.59375 292.640625 207.933594 291.894531 C 208.273438 291.152344 208.664062 290.417969 209.113281 289.699219 C 209.558594 288.976562 210.058594 288.273438 210.609375 287.585938 C 211.160156 286.898438 211.761719 286.234375 212.410156 285.585938 C 213.058594 284.9375 213.757812 284.3125 214.496094 283.710938 C 215.238281 283.109375 216.023438 282.53125 216.851562 281.980469 C 217.675781 281.429688 218.542969 280.90625 219.445312 280.410156 C 220.347656 279.917969 221.289062 279.453125 222.257812 279.019531 C 223.230469 278.589844 224.234375 278.1875 225.265625 277.820312 C 226.292969 277.453125 227.351562 277.121094 228.429688 276.824219 C 229.511719 276.523438 230.609375 276.261719 231.730469 276.035156 C 232.847656 275.808594 233.980469 275.621094 235.125 275.46875 C 236.273438 275.316406 237.429688 275.203125 238.589844 275.125 C 239.753906 275.050781 240.921875 275.011719 242.089844 275.011719 C 243.257812 275.011719 244.425781 275.050781 245.589844 275.125 C 246.753906 275.203125 247.90625 275.316406 249.054688 275.46875 C 250.199219 275.621094 251.332031 275.808594 252.453125 276.035156 C 253.570312 276.261719 254.671875 276.523438 255.75 276.824219 C 256.832031 277.121094 257.886719 277.453125 258.917969 277.820312 C 259.949219 278.1875 260.949219 278.589844 261.921875 279.019531 C 262.894531 279.453125 263.832031 279.917969 264.734375 280.410156 C 265.640625 280.90625 266.503906 281.429688 267.332031 281.980469 C 268.15625 282.53125 268.941406 283.109375 269.683594 283.710938 C 270.425781 284.3125 271.121094 284.9375 271.769531 285.585938 C 272.417969 286.234375 273.019531 286.898438 273.570312 287.585938 C 274.121094 288.273438 274.621094 288.976562 275.070312 289.699219 C 275.515625 290.417969 275.910156 291.152344 276.25 291.894531 C 276.589844 292.640625 276.871094 293.398438 277.101562 294.160156 C 277.328125 294.925781 277.5 295.695312 277.613281 296.46875 C 277.730469 297.246094 277.785156 298.023438 277.785156 298.800781 Z M 277.785156 298.800781 "/>
</g>
<path style=" stroke:none;fill-rule:nonzero;fill:rgb(92.939758%,67.449951%,0.389099%);fill-opacity:1;" d="M 266.644531 297.316406 C 266.644531 297.816406 266.605469 298.3125 266.527344 298.808594 C 266.449219 299.304688 266.335938 299.796875 266.179688 300.289062 C 266.023438 300.777344 265.832031 301.261719 265.601562 301.738281 C 265.371094 302.214844 265.105469 302.683594 264.800781 303.144531 C 264.5 303.605469 264.160156 304.054688 263.785156 304.496094 C 263.410156 304.933594 263.003906 305.363281 262.5625 305.777344 C 262.121094 306.191406 261.652344 306.59375 261.148438 306.976562 C 260.644531 307.363281 260.113281 307.730469 259.550781 308.085938 C 258.988281 308.4375 258.402344 308.773438 257.789062 309.089844 C 257.175781 309.40625 256.539062 309.703125 255.878906 309.980469 C 255.222656 310.257812 254.542969 310.511719 253.84375 310.746094 C 253.140625 310.980469 252.425781 311.195312 251.691406 311.386719 C 250.960938 311.578125 250.214844 311.746094 249.457031 311.890625 C 248.695312 312.035156 247.925781 312.15625 247.148438 312.253906 C 246.371094 312.351562 245.585938 312.421875 244.796875 312.472656 C 244.007812 312.519531 243.21875 312.546875 242.425781 312.546875 C 241.628906 312.546875 240.839844 312.519531 240.050781 312.472656 C 239.261719 312.421875 238.476562 312.351562 237.699219 312.253906 C 236.921875 312.15625 236.152344 312.035156 235.394531 311.890625 C 234.632812 311.746094 233.886719 311.578125 233.15625 311.386719 C 232.421875 311.195312 231.707031 310.980469 231.007812 310.746094 C 230.304688 310.511719 229.628906 310.257812 228.96875 309.980469 C 228.308594 309.703125 227.671875 309.40625 227.058594 309.089844 C 226.445312 308.773438 225.859375 308.4375 225.296875 308.085938 C 224.734375 307.730469 224.203125 307.363281 223.699219 306.976562 C 223.199219 306.59375 222.726562 306.191406 222.285156 305.777344 C 221.84375 305.363281 221.4375 304.933594 221.0625 304.496094 C 220.6875 304.054688 220.351562 303.605469 220.046875 303.144531 C 219.742188 302.683594 219.476562 302.214844 219.246094 301.738281 C 219.015625 301.261719 218.824219 300.777344 218.667969 300.289062 C 218.511719 299.796875 218.398438 299.304688 218.320312 298.808594 C 218.242188 298.3125 218.203125 297.816406 218.203125 297.316406 C 218.203125 296.816406 218.242188 296.320312 218.320312 295.824219 C 218.398438 295.328125 218.511719 294.835938 218.667969 294.34375 C 218.824219 293.855469 219.015625 293.371094 219.246094 292.894531 C 219.476562 292.417969 219.742188 291.949219 220.046875 291.488281 C 220.351562 291.027344 220.6875 290.578125 221.0625 290.136719 C 221.4375 289.699219 221.84375 289.269531 222.285156 288.855469 C 222.726562 288.441406 223.199219 288.039062 223.699219 287.65625 C 224.203125 287.269531 224.734375 286.898438 225.296875 286.546875 C 225.859375 286.195312 226.445312 285.859375 227.058594 285.542969 C 227.671875 285.226562 228.308594 284.929688 228.96875 284.652344 C 229.628906 284.375 230.304688 284.121094 231.007812 283.886719 C 231.707031 283.648438 232.421875 283.4375 233.15625 283.246094 C 233.886719 283.054688 234.632812 282.886719 235.394531 282.742188 C 236.152344 282.597656 236.921875 282.476562 237.699219 282.378906 C 238.476562 282.28125 239.261719 282.210938 240.050781 282.160156 C 240.839844 282.113281 241.628906 282.085938 242.425781 282.085938 C 243.21875 282.085938 244.007812 282.113281 244.796875 282.160156 C 245.585938 282.210938 246.371094 282.28125 247.148438 282.378906 C 247.925781 282.476562 248.695312 282.597656 249.457031 282.742188 C 250.214844 282.886719 250.960938 283.054688 251.691406 283.246094 C 252.425781 283.4375 253.140625 283.648438 253.84375 283.886719 C 254.542969 284.121094 255.222656 284.375 255.878906 284.652344 C 256.539062 284.929688 257.175781 285.226562 257.789062 285.542969 C 258.402344 285.859375 258.988281 286.195312 259.550781 286.546875 C 260.113281 286.898438 260.644531 287.269531 261.148438 287.65625 C 261.652344 288.039062 262.121094 288.441406 262.5625 288.855469 C 263.003906 289.269531 263.410156 289.699219 263.785156 290.136719 C 264.160156 290.578125 264.5 291.027344 264.800781 291.488281 C 265.105469 291.949219 265.371094 292.417969 265.601562 292.894531 C 265.832031 293.371094 266.023438 293.855469 266.179688 294.34375 C 266.335938 294.835938 266.449219 295.328125 266.527344 295.824219 C 266.605469 296.320312 266.644531 296.816406 266.644531 297.316406 Z M 266.644531 297.316406 "/>
<g clip-path="url(#port5)" clip-rule="nonzero">
<path style=" stroke:none;fill-rule:nonzero;fill:rgb(83.139038%,44.709778%,3.919983%);fill-opacity:1;" d="M 218.476562 346.382812 C 212.109375 340.011719 201.089844 335.550781 188.546875 335.550781 C 176.007812 335.550781 164.984375 340.011719 158.617188 346.382812 L 152.851562 346.382812 L 152.851562 359.554688 C 152.851562 372.695312 168.832031 383.347656 188.546875 383.347656 C 208.261719 383.347656 224.242188 372.695312 224.242188 359.554688 L 224.242188 346.382812 Z M 218.476562 346.382812 "/>
</g>
<path style=" stroke:none;fill-rule:nonzero;fill:rgb(100%,92.939758%,19.219971%);fill-opacity:1;" d="M 224.242188 346.597656 C 224.242188 347.375 224.1875 348.152344 224.070312 348.929688 C 223.957031 349.707031 223.785156 350.476562 223.558594 351.238281 C 223.328125 352.003906 223.046875 352.757812 222.707031 353.503906 C 222.367188 354.25 221.972656 354.984375 221.527344 355.703125 C 221.078125 356.421875 220.578125 357.125 220.027344 357.8125 C 219.476562 358.5 218.878906 359.167969 218.226562 359.816406 C 217.578125 360.464844 216.882812 361.089844 216.140625 361.691406 C 215.398438 362.292969 214.617188 362.871094 213.789062 363.421875 C 212.960938 363.972656 212.097656 364.496094 211.191406 364.988281 C 210.289062 365.484375 209.351562 365.949219 208.378906 366.378906 C 207.40625 366.8125 206.40625 367.214844 205.375 367.582031 C 204.34375 367.949219 203.289062 368.28125 202.207031 368.578125 C 201.128906 368.878906 200.027344 369.140625 198.910156 369.367188 C 197.792969 369.589844 196.660156 369.78125 195.511719 369.933594 C 194.367188 370.085938 193.210938 370.199219 192.046875 370.277344 C 190.882812 370.351562 189.71875 370.390625 188.546875 370.390625 C 187.378906 370.390625 186.214844 370.351562 185.050781 370.277344 C 183.886719 370.199219 182.730469 370.085938 181.585938 369.933594 C 180.4375 369.78125 179.304688 369.589844 178.1875 369.367188 C 177.066406 369.140625 175.96875 368.878906 174.890625 368.578125 C 173.808594 368.28125 172.753906 367.949219 171.722656 367.582031 C 170.691406 367.214844 169.691406 366.8125 168.71875 366.378906 C 167.746094 365.949219 166.808594 365.484375 165.902344 364.988281 C 165 364.496094 164.136719 363.972656 163.308594 363.421875 C 162.480469 362.871094 161.699219 362.292969 160.957031 361.691406 C 160.214844 361.089844 159.519531 360.464844 158.871094 359.816406 C 158.21875 359.167969 157.621094 358.5 157.070312 357.8125 C 156.519531 357.125 156.019531 356.421875 155.570312 355.703125 C 155.125 354.984375 154.730469 354.25 154.390625 353.503906 C 154.050781 352.757812 153.769531 352.003906 153.539062 351.238281 C 153.3125 350.476562 153.140625 349.707031 153.027344 348.929688 C 152.910156 348.152344 152.855469 347.375 152.855469 346.597656 C 152.855469 345.820312 152.910156 345.042969 153.027344 344.265625 C 153.140625 343.488281 153.3125 342.71875 153.539062 341.957031 C 153.769531 341.191406 154.050781 340.4375 154.390625 339.691406 C 154.730469 338.945312 155.125 338.210938 155.570312 337.492188 C 156.019531 336.773438 156.519531 336.070312 157.070312 335.382812 C 157.621094 334.695312 158.21875 334.027344 158.871094 333.378906 C 159.519531 332.730469 160.214844 332.105469 160.957031 331.503906 C 161.699219 330.902344 162.480469 330.324219 163.308594 329.773438 C 164.136719 329.222656 165 328.699219 165.902344 328.207031 C 166.808594 327.710938 167.746094 327.246094 168.71875 326.816406 C 169.691406 326.382812 170.691406 325.980469 171.722656 325.613281 C 172.753906 325.246094 173.808594 324.914062 174.890625 324.617188 C 175.96875 324.316406 177.066406 324.054688 178.1875 323.828125 C 179.304688 323.605469 180.4375 323.414062 181.585938 323.261719 C 182.730469 323.109375 183.886719 322.996094 185.050781 322.917969 C 186.214844 322.84375 187.378906 322.804688 188.546875 322.804688 C 189.71875 322.804688 190.882812 322.84375 192.046875 322.917969 C 193.210938 322.996094 194.367188 323.109375 195.511719 323.261719 C 196.660156 323.414062 197.792969 323.605469 198.910156 323.828125 C 200.027344 324.054688 201.128906 324.316406 202.207031 324.617188 C 203.289062 324.914062 204.34375 325.246094 205.375 325.613281 C 206.40625 325.980469 207.40625 326.382812 208.378906 326.816406 C 209.351562 327.246094 210.289062 327.710938 211.191406 328.207031 C 212.097656 328.699219 212.960938 329.222656 213.789062 329.773438 C 214.617188 330.324219 215.398438 330.902344 216.140625 331.503906 C 216.882812 332.105469 217.578125 332.730469 218.226562 333.378906 C 218.878906 334.027344 219.476562 334.695312 220.027344 335.382812 C 220.578125 336.070312 221.078125 336.773438 221.527344 337.492188 C 221.972656 338.210938 222.367188 338.945312 222.707031 339.691406 C 223.046875 340.4375 223.328125 341.191406 223.558594 341.957031 C 223.785156 342.71875 223.957031 343.488281 224.070312 344.265625 C 224.1875 345.042969 224.242188 345.820312 224.242188 346.597656 Z M 224.242188 346.597656 "/>
<path style=" stroke:none;fill-rule:nonzero;fill:rgb(92.939758%,67.449951%,0.389099%);fill-opacity:1;" d="M 213.101562 345.113281 C 213.101562 345.609375 213.0625 346.109375 212.984375 346.605469 C 212.910156 347.101562 212.792969 347.59375 212.636719 348.082031 C 212.484375 348.574219 212.289062 349.054688 212.058594 349.53125 C 211.828125 350.011719 211.5625 350.480469 211.257812 350.941406 C 210.957031 351.402344 210.617188 351.851562 210.242188 352.289062 C 209.867188 352.730469 209.460938 353.15625 209.019531 353.574219 C 208.582031 353.988281 208.109375 354.386719 207.605469 354.773438 C 207.101562 355.160156 206.570312 355.527344 206.007812 355.878906 C 205.449219 356.234375 204.859375 356.566406 204.246094 356.882812 C 203.632812 357.199219 202.996094 357.496094 202.339844 357.773438 C 201.679688 358.050781 201 358.308594 200.300781 358.542969 C 199.601562 358.777344 198.882812 358.992188 198.152344 359.183594 C 197.417969 359.371094 196.671875 359.539062 195.914062 359.683594 C 195.152344 359.828125 194.386719 359.949219 193.605469 360.046875 C 192.828125 360.144531 192.046875 360.21875 191.253906 360.265625 C 190.464844 360.316406 189.675781 360.339844 188.882812 360.339844 C 188.089844 360.339844 187.296875 360.316406 186.507812 360.265625 C 185.71875 360.21875 184.933594 360.144531 184.15625 360.046875 C 183.378906 359.949219 182.609375 359.828125 181.851562 359.683594 C 181.089844 359.539062 180.34375 359.371094 179.613281 359.183594 C 178.878906 358.992188 178.164062 358.777344 177.464844 358.542969 C 176.765625 358.308594 176.085938 358.050781 175.425781 357.773438 C 174.765625 357.496094 174.128906 357.199219 173.515625 356.882812 C 172.902344 356.566406 172.316406 356.234375 171.753906 355.878906 C 171.195312 355.527344 170.660156 355.160156 170.160156 354.773438 C 169.65625 354.386719 169.183594 353.988281 168.742188 353.574219 C 168.300781 353.15625 167.894531 352.730469 167.519531 352.289062 C 167.144531 351.851562 166.808594 351.402344 166.503906 350.941406 C 166.199219 350.480469 165.933594 350.011719 165.703125 349.53125 C 165.472656 349.054688 165.28125 348.574219 165.125 348.082031 C 164.972656 347.59375 164.855469 347.101562 164.777344 346.605469 C 164.699219 346.109375 164.660156 345.609375 164.660156 345.113281 C 164.660156 344.613281 164.699219 344.117188 164.777344 343.621094 C 164.855469 343.125 164.972656 342.628906 165.125 342.140625 C 165.28125 341.652344 165.472656 341.167969 165.703125 340.691406 C 165.933594 340.214844 166.199219 339.746094 166.503906 339.285156 C 166.808594 338.824219 167.144531 338.375 167.519531 337.933594 C 167.894531 337.492188 168.300781 337.066406 168.742188 336.652344 C 169.183594 336.238281 169.65625 335.835938 170.160156 335.453125 C 170.660156 335.066406 171.195312 334.695312 171.753906 334.34375 C 172.316406 333.992188 172.902344 333.65625 173.515625 333.339844 C 174.128906 333.023438 174.765625 332.726562 175.425781 332.449219 C 176.085938 332.171875 176.765625 331.917969 177.464844 331.683594 C 178.164062 331.445312 178.878906 331.234375 179.613281 331.042969 C 180.34375 330.851562 181.089844 330.683594 181.851562 330.539062 C 182.609375 330.394531 183.378906 330.273438 184.15625 330.175781 C 184.933594 330.078125 185.71875 330.007812 186.507812 329.957031 C 187.296875 329.90625 188.089844 329.882812 188.882812 329.882812 C 189.675781 329.882812 190.464844 329.90625 191.253906 329.957031 C 192.046875 330.007812 192.828125 330.078125 193.605469 330.175781 C 194.386719 330.273438 195.152344 330.394531 195.914062 330.539062 C 196.671875 330.683594 197.417969 330.851562 198.152344 331.042969 C 198.882812 331.234375 199.601562 331.445312 200.300781 331.683594 C 201 331.917969 201.679688 332.171875 202.339844 332.449219 C 202.996094 332.726562 203.632812 333.023438 204.246094 333.339844 C 204.859375 333.65625 205.449219 333.992188 206.007812 334.34375 C 206.570312 334.695312 207.101562 335.066406 207.605469 335.453125 C 208.109375 335.835938 208.582031 336.238281 209.019531 336.652344 C 209.460938 337.066406 209.867188 337.492188 210.242188 337.933594 C 210.617188 338.375 210.957031 338.824219 211.257812 339.285156 C 211.5625 339.746094 211.828125 340.214844 212.058594 340.691406 C 212.289062 341.167969 212.484375 341.652344 212.636719 342.140625 C 212.792969 342.628906 212.910156 343.125 212.984375 343.621094 C 213.0625 344.117188 213.101562 344.613281 213.101562 345.113281 Z M 213.101562 345.113281 "/>
<g clip-path="url(#port6)" clip-rule="nonzero">
<path style=" stroke:none;fill-rule:nonzero;fill:rgb(72.938538%,12.548828%,15.289307%);fill-opacity:1;" d="M 34.296875 225.304688 L 22.824219 217.65625 L 85.289062 127.167969 L 98.035156 134.8125 Z M 34.296875 225.304688 "/>
</g>
<path style=" stroke:none;fill-rule:nonzero;fill:rgb(72.938538%,12.548828%,15.289307%);fill-opacity:1;" d="M 132.457031 156.480469 L 168.148438 105.109375 L 180.28125 112.570312 L 143.929688 164.128906 Z M 132.457031 156.480469 "/>
<path style=" stroke:none;fill-rule:nonzero;fill:rgb(100%,37.249756%,30.979919%);fill-opacity:1;" d="M 160.5 100.402344 L 168.148438 105.109375 L 180.28125 112.570312 L 143.929688 164.128906 L 132.457031 156.480469 L 98.035156 134.8125 L 34.296875 225.304688 L 48.320312 235.5 L 101.863281 157.757812 L 147.753906 187.070312 L 194.003906 121.015625 L 210.21875 130.992188 L 210.21875 74.914062 Z M 160.5 100.402344 "/>
<g clip-path="url(#port7)" clip-rule="nonzero">
<path style=" stroke:none;fill-rule:nonzero;fill:rgb(72.938538%,12.548828%,15.289307%);fill-opacity:1;" d="M 160.5 100.402344 L 149.027344 92.753906 L 197.472656 67.265625 L 210.21875 74.914062 Z M 160.5 100.402344 "/>
</g>
<g clip-path="url(#port8)" clip-rule="nonzero">
<path style=" stroke:none;fill-rule:nonzero;fill:rgb(72.938538%,12.548828%,15.289307%);fill-opacity:1;" d="M 34.296875 225.304688 L 22.824219 217.65625 L 85.289062 127.167969 L 98.035156 134.8125 Z M 34.296875 225.304688 "/>
</g>
<path style=" stroke:none;fill-rule:nonzero;fill:rgb(72.938538%,12.548828%,15.289307%);fill-opacity:1;" d="M 132.457031 156.480469 L 168.148438 105.109375 L 180.28125 112.570312 L 143.929688 164.128906 Z M 132.457031 156.480469 "/>
<path style=" stroke:none;fill-rule:nonzero;fill:rgb(100%,37.249756%,30.979919%);fill-opacity:1;" d="M 160.5 100.402344 L 168.148438 105.109375 L 180.28125 112.570312 L 143.929688 164.128906 L 132.457031 156.480469 L 98.035156 134.8125 L 34.296875 225.304688 L 48.320312 235.5 L 101.863281 157.757812 L 147.753906 187.070312 L 194.003906 121.015625 L 210.21875 130.992188 L 210.21875 74.914062 Z M 160.5 100.402344 "/>
<g clip-path="url(#port9)" clip-rule="nonzero">
<path style=" stroke:none;fill-rule:nonzero;fill:rgb(72.938538%,12.548828%,15.289307%);fill-opacity:1;" d="M 160.5 100.402344 L 149.027344 92.753906 L 197.472656 67.265625 L 210.21875 74.914062 Z M 160.5 100.402344 "/>
</g>
</g>
</svg>
