<?xml version="1.0" encoding="UTF-8"?>
<svg xmlns="http://www.w3.org/2000/svg" xmlns:xlink="http://www.w3.org/1999/xlink" height="28px" viewBox="0 0 244.5 284.999983" version="1.2">
<defs>
<clipPath id="rb1">
  <path d="M 0 0.339844 L 244 0.339844 L 244 284.707031 L 0 284.707031 Z M 0 0.339844 "/>
</clipPath>
</defs>
<g id="remove1">
<g clip-path="url(#rb1)" clip-rule="nonzero">
<path style=" stroke:none;fill-rule:nonzero;fill:rgb(0%,70.588684%,62.348938%);fill-opacity:1;" d="M 213.824219 229.15625 L 213.824219 32.425781 C 213.351562 31.882812 211.863281 30.875 209.460938 30.875 L 35.039062 30.875 C 32.636719 30.875 31.148438 31.882812 30.675781 32.425781 L 30.675781 229.15625 L 105.648438 180.546875 C 110.699219 177.273438 116.472656 175.636719 122.25 175.636719 C 128.027344 175.636719 133.800781 177.273438 138.851562 180.546875 L 213.824219 229.15625 M 244.347656 285.339844 L 122.25 206.171875 L 0.152344 285.339844 L 0.152344 32.003906 C 0.152344 14.515625 15.769531 0.339844 35.039062 0.339844 L 209.460938 0.339844 C 228.730469 0.339844 244.347656 14.515625 244.347656 32.003906 Z M 244.347656 285.339844 "/>
</g>
<path style=" stroke:none;fill-rule:nonzero;fill:rgb(0%,70.588684%,62.348938%);fill-opacity:1;" d="M 24.449219 12.464844 L 218.019531 12.464844 L 218.019531 206.035156 L 24.449219 206.035156 Z M 24.449219 12.464844 "/>
<path style=" stroke:none;fill-rule:nonzero;fill:rgb(0%,70.588684%,62.348938%);fill-opacity:1;" d="M 7.511719 161.480469 L 77.546875 161.480469 L 77.546875 231.515625 L 7.511719 231.515625 Z M 7.511719 161.480469 "/>
<path style=" stroke:none;fill-rule:nonzero;fill:rgb(0%,70.588684%,62.348938%);fill-opacity:1;" d="M 166.082031 161.480469 L 236.117188 161.480469 L 236.117188 231.515625 L 166.082031 231.515625 Z M 166.082031 161.480469 "/>
</g>
</svg>
