<?xml version="1.0" encoding="UTF-8"?>
<svg xmlns="http://www.w3.org/2000/svg" xmlns:xlink="http://www.w3.org/1999/xlink" width="60px" viewBox="0 0 150 225" version="1.2">
<defs>
<clipPath id="search1">
  <path d="M 0 37.5 L 111 37.5 L 111 161 L 0 161 Z M 0 37.5 "/>
</clipPath>
</defs>
<g id="searchicon">
<g clip-path="url(#search1)" clip-rule="nonzero">
<path style=" stroke:none;fill-rule:nonzero;fill:rgb(79.998779%,84.709167%,89.7995%);fill-opacity:1;" d="M 9.71875 37.5 L 100.839844 37.5 C 101.476562 37.5 102.109375 37.5625 102.734375 37.6875 C 103.359375 37.8125 103.96875 37.996094 104.558594 38.238281 C 105.148438 38.484375 105.707031 38.785156 106.238281 39.136719 C 106.769531 39.492188 107.261719 39.894531 107.710938 40.347656 C 108.164062 40.796875 108.566406 41.289062 108.921875 41.820312 C 109.273438 42.351562 109.574219 42.910156 109.820312 43.5 C 110.0625 44.089844 110.246094 44.699219 110.371094 45.324219 C 110.496094 45.949219 110.558594 46.582031 110.558594 47.21875 L 110.558594 150.355469 C 110.558594 150.996094 110.496094 151.628906 110.371094 152.253906 C 110.246094 152.878906 110.0625 153.488281 109.820312 154.078125 C 109.574219 154.667969 109.273438 155.226562 108.921875 155.757812 C 108.566406 156.289062 108.164062 156.777344 107.710938 157.230469 C 107.261719 157.683594 106.769531 158.085938 106.238281 158.4375 C 105.707031 158.792969 105.148438 159.09375 104.558594 159.335938 C 103.96875 159.582031 103.359375 159.765625 102.734375 159.890625 C 102.109375 160.015625 101.476562 160.078125 100.839844 160.078125 L 9.71875 160.078125 C 9.082031 160.078125 8.449219 160.015625 7.824219 159.890625 C 7.199219 159.765625 6.589844 159.582031 6 159.335938 C 5.410156 159.09375 4.851562 158.792969 4.320312 158.4375 C 3.789062 158.085938 3.296875 157.683594 2.847656 157.230469 C 2.394531 156.777344 1.992188 156.289062 1.636719 155.757812 C 1.285156 155.226562 0.984375 154.667969 0.738281 154.078125 C 0.496094 153.488281 0.3125 152.878906 0.1875 152.253906 C 0.0625 151.628906 0 150.996094 0 150.355469 L 0 47.21875 C 0 46.582031 0.0625 45.949219 0.1875 45.324219 C 0.3125 44.699219 0.496094 44.089844 0.738281 43.5 C 0.984375 42.910156 1.285156 42.351562 1.636719 41.820312 C 1.992188 41.289062 2.394531 40.796875 2.847656 40.347656 C 3.296875 39.894531 3.789062 39.492188 4.320312 39.136719 C 4.851562 38.785156 5.410156 38.484375 6 38.238281 C 6.589844 37.996094 7.199219 37.8125 7.824219 37.6875 C 8.449219 37.5625 9.082031 37.5 9.71875 37.5 Z M 9.71875 37.5 "/>
</g>
<path style=" stroke:none;fill-rule:nonzero;fill:rgb(87.449646%,90.979004%,95.689392%);fill-opacity:1;" d="M 25.464844 73.804688 L 85.0625 73.804688 L 85.0625 79.082031 L 25.464844 79.082031 Z M 25.464844 73.804688 "/>
<path style=" stroke:none;fill-rule:nonzero;fill:rgb(87.449646%,90.979004%,95.689392%);fill-opacity:1;" d="M 25.464844 88.710938 L 85.0625 88.710938 L 85.0625 93.992188 L 25.464844 93.992188 Z M 25.464844 88.710938 "/>
<path style=" stroke:none;fill-rule:nonzero;fill:rgb(87.449646%,90.979004%,95.689392%);fill-opacity:1;" d="M 25.464844 103.585938 L 85.0625 103.585938 L 85.0625 108.867188 L 25.464844 108.867188 Z M 25.464844 103.585938 "/>
<path style=" stroke:none;fill-rule:nonzero;fill:rgb(87.449646%,90.979004%,95.689392%);fill-opacity:1;" d="M 25.464844 118.492188 L 62.734375 118.492188 L 62.734375 123.773438 L 25.464844 123.773438 Z M 25.464844 118.492188 "/>
<path style=" stroke:none;fill-rule:nonzero;fill:rgb(87.449646%,90.979004%,95.689392%);fill-opacity:1;" d="M 146.523438 184.023438 C 146.117188 184.4375 145.675781 184.808594 145.199219 185.132812 C 144.722656 185.460938 144.214844 185.738281 143.683594 185.960938 C 143.148438 186.1875 142.597656 186.359375 142.03125 186.472656 C 141.460938 186.585938 140.890625 186.644531 140.308594 186.644531 C 139.730469 186.644531 139.160156 186.585938 138.589844 186.472656 C 138.023438 186.359375 137.472656 186.1875 136.9375 185.960938 C 136.40625 185.738281 135.898438 185.460938 135.421875 185.132812 C 134.945312 184.808594 134.503906 184.4375 134.097656 184.023438 L 107.824219 157.75 C 107.421875 157.347656 107.0625 156.90625 106.746094 156.433594 C 106.429688 155.960938 106.164062 155.460938 105.945312 154.933594 C 105.726562 154.40625 105.5625 153.867188 105.453125 153.308594 C 105.339844 152.75 105.285156 152.183594 105.285156 151.613281 C 105.285156 151.046875 105.339844 150.480469 105.453125 149.921875 C 105.5625 149.363281 105.726562 148.820312 105.945312 148.296875 C 106.164062 147.769531 106.429688 147.269531 106.746094 146.796875 C 107.0625 146.320312 107.421875 145.882812 107.824219 145.480469 C 108.230469 145.078125 108.667969 144.71875 109.140625 144.402344 C 109.613281 144.085938 110.113281 143.820312 110.640625 143.601562 C 111.167969 143.382812 111.707031 143.21875 112.265625 143.109375 C 112.824219 142.996094 113.390625 142.941406 113.960938 142.941406 C 114.527344 142.941406 115.09375 142.996094 115.652344 143.109375 C 116.210938 143.21875 116.753906 143.382812 117.277344 143.601562 C 117.804688 143.820312 118.304688 144.085938 118.777344 144.402344 C 119.253906 144.71875 119.691406 145.078125 120.09375 145.480469 L 146.367188 171.753906 C 146.773438 172.152344 147.140625 172.585938 147.464844 173.054688 C 147.785156 173.523438 148.058594 174.019531 148.285156 174.542969 C 148.511719 175.066406 148.683594 175.609375 148.800781 176.164062 C 148.917969 176.722656 148.980469 177.285156 148.988281 177.855469 C 148.996094 178.425781 148.949219 178.992188 148.84375 179.550781 C 148.738281 180.109375 148.582031 180.65625 148.371094 181.183594 C 148.15625 181.714844 147.898438 182.21875 147.585938 182.695312 C 147.273438 183.171875 146.921875 183.613281 146.523438 184.023438 Z M 146.523438 184.023438 "/>
<path style=" stroke:none;fill-rule:nonzero;fill:rgb(100%,100%,100%);fill-opacity:1;" d="M 62.917969 147.5 C 62 146.792969 61.117188 146.039062 60.277344 145.242188 C 59.433594 144.445312 58.632812 143.605469 57.878906 142.722656 C 57.125 141.84375 56.417969 140.925781 55.757812 139.96875 C 55.097656 139.015625 54.488281 138.027344 53.929688 137.011719 C 53.371094 135.992188 52.867188 134.949219 52.417969 133.878906 C 51.96875 132.808594 51.578125 131.71875 51.238281 130.609375 C 50.902344 129.5 50.625 128.375 50.40625 127.234375 C 50.1875 126.09375 50.027344 124.945312 49.925781 123.792969 C 49.824219 122.636719 49.785156 121.476562 49.804688 120.316406 C 49.820312 119.15625 49.902344 118 50.039062 116.847656 C 50.179688 115.695312 50.378906 114.554688 50.636719 113.421875 C 50.894531 112.292969 51.210938 111.175781 51.582031 110.078125 C 51.957031 108.976562 52.386719 107.902344 52.871094 106.847656 C 53.355469 105.792969 53.894531 104.765625 54.484375 103.769531 C 55.074219 102.769531 55.71875 101.804688 56.410156 100.871094 C 57.101562 99.941406 57.835938 99.046875 58.621094 98.191406 C 59.40625 97.335938 60.230469 96.523438 61.101562 95.753906 C 61.96875 94.984375 62.875 94.261719 63.820312 93.585938 C 64.761719 92.910156 65.738281 92.285156 66.746094 91.710938 C 67.753906 91.136719 68.789062 90.613281 69.851562 90.148438 C 70.914062 89.679688 71.996094 89.269531 73.101562 88.914062 C 74.207031 88.558594 75.328125 88.261719 76.460938 88.023438 C 77.597656 87.785156 78.742188 87.605469 79.898438 87.484375 C 81.050781 87.363281 82.210938 87.304688 83.371094 87.304688 C 84.53125 87.304688 85.6875 87.363281 86.839844 87.484375 C 87.996094 87.605469 89.140625 87.785156 90.277344 88.023438 C 91.410156 88.261719 92.53125 88.558594 93.636719 88.914062 C 94.742188 89.269531 95.824219 89.679688 96.886719 90.148438 C 97.949219 90.613281 98.984375 91.136719 99.992188 91.710938 C 101 92.285156 101.976562 92.910156 102.921875 93.585938 C 103.863281 94.261719 104.769531 94.984375 105.636719 95.753906 C 106.507812 96.523438 107.332031 97.335938 108.117188 98.191406 C 108.902344 99.046875 109.640625 99.941406 110.332031 100.871094 C 111.023438 101.804688 111.664062 102.769531 112.253906 103.769531 C 112.847656 104.765625 113.382812 105.792969 113.871094 106.847656 C 114.355469 107.902344 114.785156 108.976562 115.15625 110.078125 C 115.53125 111.175781 115.84375 112.292969 116.101562 113.421875 C 116.359375 114.554688 116.558594 115.695312 116.699219 116.847656 C 116.835938 118 116.917969 119.15625 116.9375 120.316406 C 116.957031 121.476562 116.914062 122.636719 116.8125 123.792969 C 116.714844 124.945312 116.554688 126.09375 116.332031 127.234375 C 116.113281 128.375 115.835938 129.5 115.5 130.609375 C 115.164062 131.71875 114.769531 132.808594 114.320312 133.878906 C 113.871094 134.949219 113.367188 135.992188 112.808594 137.011719 C 112.25 138.027344 111.644531 139.015625 110.984375 139.96875 C 110.324219 140.925781 109.613281 141.84375 108.859375 142.722656 C 108.105469 143.605469 107.304688 144.445312 106.464844 145.242188 C 105.621094 146.039062 104.738281 146.792969 103.820312 147.5 C 102.363281 148.617188 100.824219 149.609375 99.203125 150.472656 C 97.585938 151.339844 95.90625 152.066406 94.167969 152.65625 C 92.429688 153.246094 90.652344 153.691406 88.839844 153.992188 C 87.03125 154.289062 85.207031 154.441406 83.371094 154.441406 C 81.535156 154.441406 79.710938 154.289062 77.898438 153.992188 C 76.085938 153.691406 74.3125 153.246094 72.570312 152.65625 C 70.832031 152.066406 69.152344 151.339844 67.535156 150.472656 C 65.914062 149.609375 64.375 148.617188 62.917969 147.5 Z M 62.917969 147.5 "/>
<path style=" stroke:none;fill-rule:nonzero;fill:rgb(87.449646%,90.979004%,95.689392%);fill-opacity:1;" d="M 94.566406 92.3125 L 42.328125 92.3125 L 54.535156 87.035156 L 94.566406 87.035156 Z M 94.566406 92.3125 "/>
<path style=" stroke:none;fill-rule:nonzero;fill:rgb(87.449646%,90.979004%,95.689392%);fill-opacity:1;" d="M 42.328125 101.941406 L 94.597656 101.941406 L 94.597656 107.21875 L 42.328125 107.21875 Z M 42.328125 101.941406 "/>
<path style=" stroke:none;fill-rule:nonzero;fill:rgb(87.449646%,90.979004%,95.689392%);fill-opacity:1;" d="M 42.328125 116.847656 L 94.597656 116.847656 L 94.597656 122.128906 L 42.328125 122.128906 Z M 42.328125 116.847656 "/>
<path style=" stroke:none;fill-rule:nonzero;fill:rgb(87.449646%,90.979004%,95.689392%);fill-opacity:1;" d="M 42.328125 131.753906 L 75 131.753906 L 75 137.035156 L 42.328125 137.035156 Z M 42.328125 131.753906 "/>
<path style=" stroke:none;fill-rule:nonzero;fill:rgb(0%,70.588684%,61.959839%);fill-opacity:1;" d="M 146.367188 171.597656 L 132.796875 158.027344 C 132.164062 157.410156 131.582031 156.75 131.046875 156.050781 C 130.511719 155.347656 130.03125 154.613281 129.601562 153.84375 C 129.171875 153.070312 128.800781 152.273438 128.488281 151.449219 C 128.171875 150.625 127.921875 149.78125 127.730469 148.921875 C 127.535156 148.058594 127.40625 147.191406 127.339844 146.308594 C 127.273438 145.429688 127.273438 144.550781 127.332031 143.671875 C 127.394531 142.789062 127.519531 141.917969 127.703125 141.058594 C 127.890625 140.195312 128.136719 139.351562 128.445312 138.523438 C 128.78125 137.667969 129.09375 136.804688 129.378906 135.933594 C 129.664062 135.058594 129.925781 134.179688 130.160156 133.292969 C 130.398438 132.40625 130.609375 131.511719 130.792969 130.613281 C 130.976562 129.710938 131.136719 128.808594 131.269531 127.898438 C 131.40625 126.992188 131.511719 126.078125 131.59375 125.164062 C 131.675781 124.25 131.730469 123.332031 131.761719 122.414062 C 131.789062 121.496094 131.792969 120.578125 131.773438 119.660156 C 131.75 118.742188 131.699219 117.828125 131.625 116.910156 C 131.550781 115.996094 131.449219 115.082031 131.324219 114.171875 C 131.199219 113.261719 131.046875 112.359375 130.867188 111.457031 C 130.6875 110.554688 130.484375 109.660156 130.257812 108.773438 C 130.027344 107.882812 129.773438 107 129.496094 106.125 C 129.214844 105.25 128.910156 104.382812 128.582031 103.527344 C 128.253906 102.667969 127.902344 101.820312 127.527344 100.984375 C 127.148438 100.144531 126.75 99.320312 126.324219 98.503906 C 125.902344 97.691406 125.453125 96.886719 124.984375 96.097656 C 124.515625 95.308594 124.023438 94.53125 123.511719 93.769531 C 123 93.007812 122.464844 92.261719 121.910156 91.53125 C 121.351562 90.800781 120.777344 90.085938 120.179688 89.386719 C 119.582031 88.691406 118.96875 88.007812 118.332031 87.34375 C 117.699219 86.683594 117.042969 86.035156 116.371094 85.410156 C 115.699219 84.785156 115.011719 84.179688 114.304688 83.589844 C 113.597656 83.003906 112.875 82.4375 112.136719 81.890625 C 111.398438 81.34375 110.644531 80.820312 109.878906 80.316406 C 109.109375 79.816406 108.328125 79.335938 107.53125 78.875 C 106.734375 78.417969 105.925781 77.980469 105.105469 77.570312 C 104.285156 77.15625 103.453125 76.765625 102.613281 76.402344 C 101.769531 76.035156 100.917969 75.695312 100.054688 75.378906 C 99.191406 75.0625 98.324219 74.769531 97.445312 74.5 C 96.566406 74.234375 95.679688 73.992188 94.789062 73.773438 C 93.894531 73.558594 92.996094 73.367188 92.09375 73.199219 C 91.191406 73.035156 90.285156 72.894531 89.371094 72.78125 C 88.460938 72.664062 87.546875 72.578125 86.632812 72.515625 C 85.714844 72.453125 84.796875 72.417969 83.878906 72.40625 C 82.960938 72.394531 82.042969 72.410156 81.125 72.453125 C 80.207031 72.496094 79.292969 72.5625 78.378906 72.65625 C 77.464844 72.75 76.554688 72.871094 75.648438 73.015625 C 74.742188 73.164062 73.839844 73.335938 72.941406 73.53125 C 72.046875 73.730469 71.15625 73.953125 70.269531 74.199219 C 69.386719 74.445312 68.507812 74.71875 67.640625 75.015625 C 66.773438 75.316406 65.910156 75.636719 65.0625 75.984375 C 64.210938 76.328125 63.371094 76.699219 62.542969 77.09375 C 61.710938 77.488281 60.894531 77.90625 60.089844 78.347656 C 59.28125 78.789062 58.492188 79.25 57.710938 79.738281 C 56.929688 80.222656 56.167969 80.730469 55.417969 81.257812 C 54.664062 81.789062 53.929688 82.339844 53.210938 82.910156 C 52.492188 83.480469 51.789062 84.074219 51.105469 84.683594 C 50.417969 85.292969 49.75 85.925781 49.101562 86.574219 C 48.453125 87.222656 47.820312 87.890625 47.207031 88.574219 C 46.597656 89.257812 46.003906 89.960938 45.433594 90.679688 C 44.859375 91.398438 44.308594 92.132812 43.78125 92.882812 C 43.25 93.632812 42.742188 94.398438 42.253906 95.175781 C 41.769531 95.953125 41.304688 96.746094 40.863281 97.550781 C 40.421875 98.355469 40 99.175781 39.605469 100.003906 C 39.210938 100.832031 38.839844 101.671875 38.492188 102.523438 C 38.144531 103.371094 37.820312 104.230469 37.523438 105.101562 C 37.226562 105.96875 36.953125 106.84375 36.703125 107.730469 C 36.453125 108.613281 36.230469 109.503906 36.03125 110.398438 C 35.835938 111.296875 35.660156 112.199219 35.515625 113.105469 C 35.367188 114.011719 35.246094 114.921875 35.152344 115.835938 C 35.058594 116.75 34.988281 117.664062 34.945312 118.582031 C 34.902344 119.5 34.886719 120.417969 34.894531 121.335938 C 34.902344 122.253906 34.9375 123.171875 35 124.085938 C 35.0625 125.003906 35.148438 125.917969 35.261719 126.828125 C 35.375 127.742188 35.515625 128.648438 35.679688 129.550781 C 35.84375 130.453125 36.035156 131.351562 36.25 132.246094 C 36.46875 133.136719 36.707031 134.023438 36.976562 134.902344 C 37.242188 135.78125 37.53125 136.652344 37.847656 137.515625 C 38.164062 138.378906 38.503906 139.230469 38.867188 140.074219 C 39.234375 140.917969 39.621094 141.75 40.03125 142.570312 C 40.445312 143.390625 40.878906 144.199219 41.335938 144.996094 C 41.792969 145.792969 42.273438 146.574219 42.777344 147.34375 C 43.277344 148.113281 43.804688 148.867188 44.347656 149.605469 C 44.894531 150.34375 45.457031 151.066406 46.042969 151.773438 C 46.632812 152.480469 47.238281 153.171875 47.863281 153.84375 C 48.488281 154.515625 49.132812 155.171875 49.792969 155.804688 C 50.457031 156.441406 51.136719 157.058594 51.835938 157.65625 C 52.53125 158.253906 53.246094 158.828125 53.976562 159.386719 C 54.707031 159.941406 55.453125 160.476562 56.214844 160.992188 C 56.976562 161.507812 57.75 162 58.539062 162.46875 C 59.328125 162.9375 60.128906 163.386719 60.945312 163.8125 C 61.757812 164.234375 62.585938 164.636719 63.421875 165.015625 C 64.257812 165.390625 65.105469 165.746094 65.964844 166.074219 C 66.820312 166.402344 67.6875 166.707031 68.5625 166.988281 C 69.4375 167.269531 70.320312 167.523438 71.207031 167.753906 C 72.097656 167.984375 72.992188 168.1875 73.890625 168.367188 C 74.792969 168.546875 75.699219 168.699219 76.609375 168.828125 C 77.515625 168.957031 78.429688 169.058594 79.34375 169.132812 C 80.261719 169.207031 81.175781 169.257812 82.09375 169.28125 C 83.011719 169.304688 83.929688 169.300781 84.847656 169.273438 C 85.765625 169.246094 86.683594 169.191406 87.597656 169.109375 C 88.511719 169.027344 89.425781 168.921875 90.335938 168.789062 C 91.242188 168.65625 92.148438 168.5 93.046875 168.316406 C 93.945312 168.128906 94.839844 167.921875 95.726562 167.6875 C 96.617188 167.453125 97.496094 167.191406 98.371094 166.90625 C 99.242188 166.621094 100.105469 166.3125 100.960938 165.976562 C 101.800781 165.671875 102.652344 165.429688 103.523438 165.246094 C 104.394531 165.0625 105.273438 164.941406 106.164062 164.882812 C 107.050781 164.828125 107.9375 164.832031 108.828125 164.902344 C 109.714844 164.972656 110.59375 165.105469 111.460938 165.300781 C 112.328125 165.496094 113.179688 165.753906 114.011719 166.074219 C 114.84375 166.390625 115.648438 166.765625 116.425781 167.199219 C 117.203125 167.632812 117.945312 168.117188 118.652344 168.65625 C 119.363281 169.195312 120.027344 169.785156 120.652344 170.417969 L 134.253906 184.023438 C 134.710938 184.480469 135.210938 184.882812 135.757812 185.230469 C 136.304688 185.574219 136.882812 185.859375 137.492188 186.074219 C 138.101562 186.292969 138.726562 186.4375 139.367188 186.515625 C 140.011719 186.59375 140.652344 186.597656 141.296875 186.53125 C 141.941406 186.464844 142.566406 186.328125 143.179688 186.117188 C 143.792969 185.910156 144.375 185.636719 144.925781 185.300781 C 145.476562 184.960938 145.984375 184.566406 146.449219 184.117188 C 146.910156 183.664062 147.320312 183.167969 147.671875 182.625 C 147.9375 182.199219 148.167969 181.757812 148.359375 181.292969 C 148.550781 180.828125 148.703125 180.351562 148.8125 179.863281 C 148.925781 179.375 148.992188 178.878906 149.019531 178.378906 C 149.046875 177.878906 149.03125 177.378906 148.972656 176.878906 C 148.910156 176.382812 148.8125 175.894531 148.667969 175.414062 C 148.527344 174.929688 148.34375 174.464844 148.121094 174.015625 C 147.902344 173.566406 147.640625 173.140625 147.347656 172.734375 C 147.054688 172.328125 146.726562 171.949219 146.367188 171.597656 Z M 62.917969 147.5 C 62 146.792969 61.117188 146.039062 60.277344 145.242188 C 59.433594 144.445312 58.632812 143.605469 57.878906 142.722656 C 57.125 141.84375 56.417969 140.925781 55.757812 139.96875 C 55.097656 139.015625 54.488281 138.027344 53.929688 137.011719 C 53.371094 135.992188 52.867188 134.949219 52.417969 133.878906 C 51.96875 132.808594 51.578125 131.71875 51.238281 130.609375 C 50.902344 129.5 50.625 128.375 50.40625 127.234375 C 50.1875 126.09375 50.027344 124.945312 49.925781 123.792969 C 49.824219 122.636719 49.785156 121.476562 49.804688 120.316406 C 49.820312 119.15625 49.902344 118 50.039062 116.847656 C 50.179688 115.695312 50.378906 114.554688 50.636719 113.421875 C 50.894531 112.292969 51.210938 111.175781 51.582031 110.078125 C 51.957031 108.976562 52.386719 107.902344 52.871094 106.847656 C 53.355469 105.792969 53.894531 104.765625 54.484375 103.769531 C 55.074219 102.769531 55.71875 101.804688 56.410156 100.871094 C 57.101562 99.941406 57.835938 99.046875 58.621094 98.191406 C 59.40625 97.335938 60.230469 96.523438 61.101562 95.753906 C 61.96875 94.984375 62.875 94.261719 63.820312 93.585938 C 64.761719 92.910156 65.738281 92.285156 66.746094 91.710938 C 67.753906 91.136719 68.789062 90.613281 69.851562 90.148438 C 70.914062 89.679688 71.996094 89.269531 73.101562 88.914062 C 74.207031 88.558594 75.328125 88.261719 76.460938 88.023438 C 77.597656 87.785156 78.742188 87.605469 79.898438 87.484375 C 81.050781 87.363281 82.210938 87.304688 83.371094 87.304688 C 84.53125 87.304688 85.6875 87.363281 86.839844 87.484375 C 87.996094 87.605469 89.140625 87.785156 90.277344 88.023438 C 91.410156 88.261719 92.53125 88.558594 93.636719 88.914062 C 94.742188 89.269531 95.824219 89.679688 96.886719 90.148438 C 97.949219 90.613281 98.984375 91.136719 99.992188 91.710938 C 101 92.285156 101.976562 92.910156 102.921875 93.585938 C 103.863281 94.261719 104.769531 94.984375 105.636719 95.753906 C 106.507812 96.523438 107.332031 97.335938 108.117188 98.191406 C 108.902344 99.046875 109.640625 99.941406 110.332031 100.871094 C 111.023438 101.804688 111.664062 102.769531 112.253906 103.769531 C 112.847656 104.765625 113.382812 105.792969 113.871094 106.847656 C 114.355469 107.902344 114.785156 108.976562 115.15625 110.078125 C 115.53125 111.175781 115.84375 112.292969 116.101562 113.421875 C 116.359375 114.554688 116.558594 115.695312 116.699219 116.847656 C 116.835938 118 116.917969 119.15625 116.9375 120.316406 C 116.957031 121.476562 116.914062 122.636719 116.8125 123.792969 C 116.714844 124.945312 116.554688 126.09375 116.332031 127.234375 C 116.113281 128.375 115.835938 129.5 115.5 130.609375 C 115.164062 131.71875 114.769531 132.808594 114.320312 133.878906 C 113.871094 134.949219 113.367188 135.992188 112.808594 137.011719 C 112.25 138.027344 111.644531 139.015625 110.984375 139.96875 C 110.324219 140.925781 109.613281 141.84375 108.859375 142.722656 C 108.105469 143.605469 107.304688 144.445312 106.464844 145.242188 C 105.621094 146.039062 104.738281 146.792969 103.820312 147.5 C 102.363281 148.617188 100.824219 149.609375 99.203125 150.472656 C 97.585938 151.339844 95.90625 152.066406 94.167969 152.65625 C 92.429688 153.246094 90.652344 153.691406 88.839844 153.992188 C 87.03125 154.289062 85.207031 154.441406 83.371094 154.441406 C 81.535156 154.441406 79.710938 154.289062 77.898438 153.992188 C 76.085938 153.691406 74.3125 153.246094 72.570312 152.65625 C 70.832031 152.066406 69.152344 151.339844 67.535156 150.472656 C 65.914062 149.609375 64.375 148.617188 62.917969 147.5 Z M 62.917969 147.5 "/>
<path style=" stroke:none;fill-rule:nonzero;fill:rgb(0%,70.588684%,61.959839%);fill-opacity:1;" d="M 138.292969 163.523438 L 125.871094 175.945312 L 134.097656 184.175781 C 134.507812 184.585938 134.949219 184.949219 135.429688 185.269531 C 135.910156 185.589844 136.417969 185.859375 136.949219 186.082031 C 137.480469 186.300781 138.03125 186.46875 138.597656 186.582031 C 139.164062 186.695312 139.734375 186.75 140.308594 186.75 C 140.886719 186.75 141.457031 186.695312 142.023438 186.582031 C 142.589844 186.46875 143.140625 186.300781 143.671875 186.082031 C 144.203125 185.859375 144.710938 185.589844 145.191406 185.269531 C 145.671875 184.949219 146.113281 184.585938 146.523438 184.175781 C 146.929688 183.769531 147.292969 183.324219 147.613281 182.847656 C 147.933594 182.367188 148.207031 181.859375 148.425781 181.328125 C 148.648438 180.792969 148.8125 180.246094 148.925781 179.679688 C 149.039062 179.113281 149.09375 178.542969 149.09375 177.964844 C 149.09375 177.390625 149.039062 176.816406 148.925781 176.253906 C 148.8125 175.6875 148.648438 175.136719 148.425781 174.605469 C 148.207031 174.070312 147.933594 173.566406 147.613281 173.085938 C 147.292969 172.605469 146.929688 172.164062 146.523438 171.753906 Z M 138.292969 163.523438 "/>
<path style=" stroke:none;fill-rule:nonzero;fill:rgb(0%,70.588684%,61.959839%);fill-opacity:1;" d="M 126.003906 175.769531 L 138.257812 163.515625 L 141.96875 167.226562 L 129.714844 179.480469 Z M 126.003906 175.769531 "/>
</g>
</svg>
