<?xml version="1.0" encoding="UTF-8"?>
<svg xmlns="http://www.w3.org/2000/svg" xmlns:xlink="http://www.w3.org/1999/xlink" width="22px" viewBox="0 0 224.87999 225" version="1.2">
<defs>
<clipPath id="star1">
  <path d="M 5.128906 20 L 219 20 L 219 224.9375 L 5.128906 224.9375 Z M 5.128906 20 "/>
</clipPath>
</defs>
<g id="staricon">
<g clip-path="url(#star1)" clip-rule="nonzero">
<path style=" stroke:none;fill-rule:nonzero;fill:rgb(98.429871%,75.289917%,17.649841%);fill-opacity:1;" d="M 218.328125 97.394531 C 217.339844 94.351562 214.71875 92.136719 211.566406 91.675781 L 148.078125 82.425781 L 119.6875 24.726562 C 118.277344 21.863281 115.367188 20.046875 112.179688 20.046875 C 108.988281 20.046875 106.078125 21.863281 104.667969 24.726562 L 76.273438 82.425781 L 12.792969 91.675781 C 9.636719 92.136719 7.011719 94.351562 6.03125 97.394531 C 5.046875 100.433594 5.867188 103.773438 8.152344 106.003906 L 54.089844 150.917969 L 43.242188 214.328125 C 42.699219 217.480469 43.996094 220.667969 46.570312 222.546875 C 49.15625 224.425781 52.574219 224.671875 55.394531 223.1875 L 112.179688 193.246094 L 168.960938 223.183594 C 170.1875 223.828125 171.527344 224.148438 172.859375 224.148438 C 174.597656 224.148438 176.324219 223.605469 177.785156 222.542969 C 180.363281 220.667969 181.65625 217.476562 181.113281 214.328125 L 170.269531 150.914062 L 216.207031 106.003906 C 218.492188 103.777344 219.3125 100.433594 218.328125 97.394531 Z M 218.328125 97.394531 "/>
</g>
</g>
</svg>
