<?xml version="1.0" encoding="UTF-8"?>
<svg xmlns="http://www.w3.org/2000/svg" xmlns:xlink="http://www.w3.org/1999/xlink" width="18px" viewBox="0 0 300 299.999988" version="1.2">
<g id="stopicon">
<path style=" stroke:none;fill-rule:nonzero;fill:rgb(86.669922%,23.139954%,39.99939%);fill-opacity:1;" d="M 150 0 C 67.160156 0 0 67.160156 0 150 C 0 232.839844 67.160156 300 150 300 C 232.839844 300 300 232.839844 300 150 C 300 67.160156 232.839844 0 150 0 Z M 258.332031 150 C 258.332031 171.375 252.058594 191.25 241.375 208.042969 L 91.964844 58.632812 C 108.75 47.941406 128.625 41.667969 150 41.667969 C 209.832031 41.667969 258.332031 90.175781 258.332031 150 Z M 41.667969 150 C 41.667969 128.625 47.941406 108.75 58.632812 91.964844 L 208.042969 241.375 C 191.25 252.058594 171.375 258.332031 150 258.332031 C 90.175781 258.332031 41.667969 209.832031 41.667969 150 Z M 41.667969 150 "/>
</g>
</svg>
